<?xml version="1.0" encoding="utf-8"?>
<!-- Generator: Adobe Illustrator 21.0.1, SVG Export Plug-In . SVG Version: 6.00 Build 0)  -->
<svg version="1.1" id="Capa_1" xmlns="http://www.w3.org/2000/svg" xmlns:xlink="http://www.w3.org/1999/xlink" x="0px" y="0px"
	 viewBox="0 0 18 12.2" style="enable-background:new 0 0 18 12.2;" xml:space="preserve">
<style type="text/css">
	.st0{fill:#444444;}
</style>
<g>
	<g id="Menu_1_">
		<path class="st0" d="M17.4,1.2H0.6C0.3,1.2,0,1,0,0.6C0,0.3,0.3,0,0.6,0h16.8C17.7,0,18,0.3,18,0.6S17.7,1.2,17.4,1.2z"/>
		<path class="st0" d="M0.6,5.5h16.8c0.3,0,0.6,0.3,0.6,0.6c0,0.3-0.3,0.6-0.6,0.6H0.6C0.3,6.7,0,6.5,0,6.1C0,5.8,0.3,5.5,0.6,5.5z"
			/>
		<path class="st0" d="M0.6,11h10.5c0.3,0,0.6,0.3,0.6,0.6s-0.3,0.6-0.6,0.6H0.6c-0.3,0-0.6-0.3-0.6-0.6S0.3,11,0.6,11z"/>
	</g>
</g>
</svg>
