<?xml version="1.0" standalone="no"?>
<!DOCTYPE svg PUBLIC "-//W3C//DTD SVG 1.1//EN" "http://www.w3.org/Graphics/SVG/1.1/DTD/svg11.dtd">
<svg xmlns="http://www.w3.org/2000/svg">
<metadata>Fair Deal Lab</metadata>
<defs>
<font id="iconmind-fill" horiz-adv-x="1000" >
<font-face font-family="iconmind-fill" font-weight="400" font-stretch="normal" units-per-em="1000" ascent="850" descent="-150" />
<missing-glyph horiz-adv-x="1000" />
<glyph glyph-name="add-space-after-paragraph" unicode="&#xe800;" d="M42 38c-8 0-16 2-23 7-19 13-24 39-11 58l83 122-83 122c-13 19-8 45 11 58s45 8 58-11l99-146c9-14 9-32 0-46l-99-146c-8-12-21-18-35-18z m916 541h-708c-23 0-42 19-42 42s19 42 42 42h708c23 0 42-19 42-42s-19-42-42-42z m-417-125h-291c-23 0-42 19-42 42s19 42 42 42h291c23 0 42-19 42-42s-19-42-42-42z m250-125h-541c-23 0-42 19-42 42s19 42 42 42h541c23 0 42-19 42-42s-19-42-42-42z m-500-125h-41c-23 0-42 19-42 42s19 42 42 42h41c23 0 42-19 42-42s-19-42-42-42z m167 0h-42c-23 0-41 19-41 42s18 42 41 42h42c23 0 42-19 42-42s-19-42-42-42z m167 0h-42c-23 0-42 19-42 42s19 42 42 42h42c23 0 41-19 41-42s-18-42-41-42z m166 0h-41c-23 0-42 19-42 42s19 42 42 42h41c23 0 42-19 42-42s-19-42-42-42z m167 0h-42c-23 0-41 19-41 42s18 42 41 42h42c23 0 42-19 42-42s-19-42-42-42z m-667-125h-41c-23 0-42 19-42 42s19 42 42 42h41c23 0 42-19 42-42s-19-42-42-42z m167 0h-42c-23 0-41 19-41 42s18 42 41 42h42c23 0 42-19 42-42s-19-42-42-42z m167 0h-42c-23 0-42 19-42 42s19 42 42 42h42c23 0 41-19 41-42s-18-42-41-42z m166 0h-41c-23 0-42 19-42 42s19 42 42 42h41c23 0 42-19 42-42s-19-42-42-42z m167 0h-42c-23 0-41 19-41 42s18 42 41 42h42c23 0 42-19 42-42s-19-42-42-42z" horiz-adv-x="1000" />

<glyph glyph-name="add-space-before-paragraph" unicode="&#xe801;" d="M875 183h-542c-23 0-42 19-42 42 0 23 19 42 42 42h542c23 0 41-19 41-42 0-23-18-42-41-42z m-292-125h-250c-23 0-42 19-42 42 0 23 19 42 42 42h250c23 0 42-19 42-42 0-23-19-42-42-42z m-457 209c-9 0-17 2-24 7-19 13-24 39-11 58l83 122-83 123c-13 19-8 45 11 58s45 7 58-12l99-145c10-15 10-33 0-47l-99-146c-8-12-21-18-34-18z m249 166h-42c-23 0-42 19-42 42s19 42 42 42h42c23 0 41-19 41-42s-18-42-41-42z m166 0h-41c-23 0-42 19-42 42s19 42 42 42h41c23 0 42-19 42-42s-19-42-42-42z m167 0h-42c-23 0-41 19-41 42s18 42 41 42h42c23 0 42-19 42-42s-19-42-42-42z m167 0h-42c-23 0-42 19-42 42s19 42 42 42h42c23 0 41-19 41-42s-18-42-41-42z m-500-125h-42c-23 0-42 19-42 42 0 23 19 42 42 42h42c23 0 41-19 41-42 0-23-18-42-41-42z m166 0h-41c-23 0-42 19-42 42 0 23 19 42 42 42h41c23 0 42-19 42-42 0-23-19-42-42-42z m167 0h-42c-23 0-41 19-41 42 0 23 18 42 41 42h42c23 0 42-19 42-42 0-23-19-42-42-42z m167 0h-42c-23 0-42 19-42 42 0 23 19 42 42 42h42c23 0 41-19 41-42 0-23-18-42-41-42z" horiz-adv-x="1000" />

<glyph glyph-name="align-center" unicode="&#xe802;" d="M42 558h916c23 0 42 19 42 42s-19 42-42 42h-916c-23 0-42-19-42-42s19-42 42-42z m833-83c0 23-19 42-42 42h-708c-23 0-42-19-42-42s19-42 42-42h708c23 0 42 19 42 42z m-208-167c23 0 41 19 41 42s-18 42-41 42h-334c-23 0-41-19-41-42s18-42 41-42h334z m-542-83c0-23 19-42 42-42h625c23 0 41 19 41 42s-18 42-41 42h-625c-23 0-42-19-42-42z m833-83h-916c-23 0-42-19-42-42s19-42 42-42h916c23 0 42 19 42 42s-19 42-42 42z" horiz-adv-x="1000" />

<glyph glyph-name="align-justify-all" unicode="&#xe803;" d="M42 558h916c23 0 42 19 42 42s-19 42-42 42h-916c-23 0-42-19-42-42s19-42 42-42z m916-41h-916c-23 0-42-19-42-42s19-42 42-42h916c23 0 42 19 42 42s-19 42-42 42z m0-125h-916c-23 0-42-19-42-42s19-42 42-42h916c23 0 42 19 42 42s-19 42-42 42z m0-125h-916c-23 0-42-19-42-42s19-42 42-42h916c23 0 42 19 42 42s-19 42-42 42z m0-125h-916c-23 0-42-19-42-42s19-42 42-42h916c23 0 42 19 42 42s-19 42-42 42z" horiz-adv-x="1000" />

<glyph glyph-name="align-justify-center" unicode="&#xe804;" d="M42 558h916c23 0 42 19 42 42s-19 42-42 42h-916c-23 0-42-19-42-42s19-42 42-42z m916-41h-916c-23 0-42-19-42-42s19-42 42-42h916c23 0 42 19 42 42s-19 42-42 42z m0-125h-916c-23 0-42-19-42-42s19-42 42-42h916c23 0 42 19 42 42s-19 42-42 42z m0-125h-916c-23 0-42-19-42-42s19-42 42-42h916c23 0 42 19 42 42s-19 42-42 42z m-208-125h-500c-23 0-42-19-42-42s19-42 42-42h500c23 0 42 19 42 42s-19 42-42 42z" horiz-adv-x="1000" />

<glyph glyph-name="align-justify-left" unicode="&#xe805;" d="M42 558h916c23 0 42 19 42 42s-19 42-42 42h-916c-23 0-42-19-42-42s19-42 42-42z m916-41h-916c-23 0-42-19-42-42s19-42 42-42h916c23 0 42 19 42 42s-19 42-42 42z m0-125h-916c-23 0-42-19-42-42s19-42 42-42h916c23 0 42 19 42 42s-19 42-42 42z m0-125h-916c-23 0-42-19-42-42s19-42 42-42h916c23 0 42 19 42 42s-19 42-42 42z m0-125h-500c-23 0-41-19-41-42s18-42 41-42h500c23 0 42 19 42 42s-19 42-42 42z" horiz-adv-x="1000" />

<glyph glyph-name="align-justify-right" unicode="&#xe806;" d="M958 558h-916c-23 0-42 19-42 42s19 42 42 42h916c23 0 42-19 42-42s-19-42-42-42z m0-125h-916c-23 0-42 19-42 42s19 42 42 42h916c23 0 42-19 42-42s-19-42-42-42z m0-125h-916c-23 0-42 19-42 42s19 42 42 42h916c23 0 42-19 42-42s-19-42-42-42z m0-125h-916c-23 0-42 19-42 42s19 42 42 42h916c23 0 42-19 42-42s-19-42-42-42z m-416-125h-500c-23 0-42 19-42 42s19 42 42 42h500c23 0 41-19 41-42s-18-42-41-42z" horiz-adv-x="1000" />

<glyph glyph-name="align-left" unicode="&#xe807;" d="M42 558h916c23 0 42 19 42 42s-19 42-42 42h-916c-23 0-42-19-42-42s19-42 42-42z m916-41h-708c-23 0-42-19-42-42s19-42 42-42h708c23 0 42 19 42 42s-19 42-42 42z m0-125h-333c-23 0-42-19-42-42s19-42 42-42h333c23 0 42 19 42 42s-19 42-42 42z m0-125h-625c-23 0-41-19-41-42s18-42 41-42h625c23 0 42 19 42 42s-19 42-42 42z m0-125h-916c-23 0-42-19-42-42s19-42 42-42h916c23 0 42 19 42 42s-19 42-42 42z" horiz-adv-x="1000" />

<glyph glyph-name="align-right" unicode="&#xe808;" d="M42 600m0-125m0-125m0-125m0-125m916 542h-916c-23 0-42-19-42-42s19-42 42-42h916c23 0 42 19 42 42s-19 42-42 42z m-208-125h-708c-23 0-42-19-42-42s19-42 42-42h708c23 0 42 19 42 42s-19 42-42 42z m-708-209h333c23 0 42 19 42 42s-19 42-42 42h-333c-23 0-42-19-42-42s19-42 42-42z m625-41h-625c-23 0-42-19-42-42s19-42 42-42h625c23 0 41 19 41 42s-18 42-41 42z m-125-125h-500c-23 0-42-19-42-42s19-42 42-42h500c23 0 41 19 41 42s-18 42-41 42z" horiz-adv-x="1000" />

<glyph glyph-name="decrase-inedit" unicode="&#xe809;" d="M804 558h-750c-23 0-41 19-41 42s18 42 41 42h750c23 0 42-19 42-42s-19-42-42-42z m0-125h-750c-23 0-41 19-41 42s18 42 41 42h750c23 0 42-19 42-42s-19-42-42-42z m-250-125h-500c-23 0-41 19-41 42s18 42 41 42h500c23 0 42-19 42-42s-19-42-42-42z m0-125h-500c-23 0-41 19-41 42s18 42 41 42h500c23 0 42-19 42-42s-19-42-42-42z m250-125h-750c-23 0-41 19-41 42s18 42 41 42h750c23 0 42-19 42-42s-19-42-42-42z m142 42c-14 0-28 7-36 20l-99 167c-8 13-8 30 0 43l99 166c12 20 37 27 57 15 20-12 26-37 15-57l-87-146 87-145c11-20 5-45-15-57-7-4-14-6-21-6z" horiz-adv-x="1000" />

<glyph glyph-name="increase-inedit" unicode="&#xe80a;" d="M721 558h-667c-23 0-41 19-41 42s18 42 41 42h667c23 0 42-19 42-42s-19-42-42-42z m0-125h-667c-23 0-41 19-41 42s18 42 41 42h667c23 0 42-19 42-42s-19-42-42-42z m-208-125h-459c-23 0-41 19-41 42s18 42 41 42h459c23 0 41-19 41-42s-18-42-41-42z m0-125h-459c-23 0-41 19-41 42s18 42 41 42h459c23 0 41-19 41-42s-18-42-41-42z m208-125h-667c-23 0-41 19-41 42s18 42 41 42h667c23 0 42-19 42-42s-19-42-42-42z m126 42c-7 0-15 2-21 6-20 12-27 37-15 57l86 145-86 146c-12 20-5 45 15 57 19 12 45 5 57-15l99-166c8-13 8-30 0-43l-99-167c-8-13-22-20-36-20z" horiz-adv-x="1000" />

<glyph glyph-name="indent-first-line" unicode="&#xe80b;" d="M958 496h-208c-23 0-42-19-42-42s19-41 42-41h208c23 0 42 18 42 41s-19 42-42 42z m-208-125h-500c-23 0-42-19-42-42 0-23 19-41 42-41h500c23 0 41 18 41 41 0 23-18 42-41 42z m-500-208h208c23 0 42 18 42 41 0 23-19 42-42 42h-208c-23 0-42-19-42-42 0-23 19-41 42-41z m416-42h-416c-23 0-42-19-42-42 0-23 19-41 42-41h416c23 0 42 18 42 41 0 23-19 42-42 42z m-416 292h41c23 0 42 18 42 41s-19 42-42 42h-41c-23 0-42-19-42-42s19-41 42-41z m166 0h42c23 0 42 18 42 41s-19 42-42 42h-42c-23 0-41-19-41-42s18-41 41-41z m167 0h42c23 0 41 18 41 41s-18 42-41 42h-42c-23 0-42-19-42-42s19-41 42-41z m-506 231c-13 19-39 24-58 11-19-13-24-38-11-57l83-123-83-122c-13-19-8-45 11-58 7-5 15-7 23-7 14 0 27 6 35 18l99 146c9 14 9 32 0 47l-99 145z" horiz-adv-x="1000" />

<glyph glyph-name="indent-left-margin" unicode="&#xe80c;" d="M596 621h-542c-23 0-41-19-41-42s18-41 41-41h542c23 0 42 18 42 41s-19 42-42 42z m-542-208h334c23 0 41 18 41 41s-18 42-41 42h-334c-23 0-41-19-41-42s18-41 41-41z m0-125h125c23 0 42 18 42 41s-19 42-42 42h-125c-23 0-41-19-41-42s18-41 41-41z m0-125h250c23 0 42 18 42 41s-19 42-42 42h-250c-23 0-41-19-41-42s18-41 41-41z m542-42h-542c-23 0-41-19-41-42s18-41 41-41h542c23 0 42 18 42 41s-19 42-42 42z m125 542c-23 0-42-19-42-42v-542c0-23 19-41 42-41 23 0 42 18 42 41v542c0 23-19 42-42 42z m174-334l87 146c11 19 5 45-15 57-20 11-45 5-57-15l-99-167c-8-13-8-29 0-42l99-167c8-13 22-20 36-20 7 0 14 2 21 6 20 12 26 37 15 57l-87 145z" horiz-adv-x="1000" />

<glyph glyph-name="indent-right-margin" unicode="&#xe80d;" d="M407 538h541c23 0 42 18 42 41s-19 42-42 42h-541c-23 0-42-19-42-42s19-41 42-41z m0-125h333c23 0 42 18 42 41s-19 42-42 42h-333c-23 0-42-19-42-42s19-41 42-41z m0-125h125c23 0 41 18 41 41s-18 42-41 42h-125c-23 0-42-19-42-42s19-41 42-41z m0-125h250c23 0 41 18 41 41s-18 42-41 42h-250c-23 0-42-19-42-42s19-41 42-41z m541-42h-541c-23 0-42-19-42-42s19-41 42-41h541c23 0 42 18 42 41s-19 42-42 42z m-666 542c-23 0-42-19-42-42v-542c0-23 19-41 42-41s41 18 41 41v542c0 23-18 42-41 42z m-194-146c-12 20-38 27-58 15-19-12-26-38-14-57l86-146-86-145c-12-20-5-45 14-57 7-4 14-6 22-6 14 0 28 7 36 20l99 167c7 13 7 29 0 42l-99 167z" horiz-adv-x="1000" />

<glyph glyph-name="line-spacing" unicode="&#xe80e;" d="M520 590h-458c-23 0-42 18-42 41s19 42 42 42h458c23 0 42-19 42-42s-19-41-42-41z m0-125h-458c-23 0-42 18-42 41s19 42 42 42h458c23 0 42-19 42-42s-19-41-42-41z m-125-125h-333c-23 0-42 18-42 41s19 42 42 42h333c23 0 42-19 42-42s-19-41-42-41z m0-125h-333c-23 0-42 18-42 41s19 42 42 42h333c23 0 42-19 42-42s-19-41-42-41z m500 125h-250c-23 0-41 18-41 41s18 42 41 42h250c23 0 42-19 42-42s-19-41-42-41z m-375-250h-458c-23 0-42 18-42 41s19 42 42 42h458c23 0 42-19 42-42s-19-41-42-41z m375 125h-250c-23 0-41 18-41 41s18 42 41 42h250c23 0 42-19 42-42s-19-41-42-41z m-292-188c-15 0-30 9-37 24-11 20-2 45 19 55l167 82c12 5 25 5 37 0l167-82c21-10 30-35 19-55s-35-30-55-20l-149 73-150-73c-6-3-12-4-18-4z m167 417c-6 0-12 1-18 4l-167 81c-21 11-30 35-20 56 10 21 35 29 56 19l149-72 150 72c20 10 45 2 55-19 10-21 2-46-19-56l-167-81c-6-3-12-4-19-4z" horiz-adv-x="1000" />

<glyph glyph-name="aligator" unicode="&#xe80f;" d="M854 267c-11 0-21 9-21 21v41c0 12 10 21 21 21s21-9 21-21v-41c0-12-9-21-21-21z m-83-42c-12 0-21 9-21 21v42c0 11 9 20 21 20s21-9 21-20v-42c0-12-10-21-21-21z m83 104c81 0 146 65 146 146 0 12-9 21-21 21h-38c-9 24-32 42-59 42-27 0-50-18-59-42h-573c-7 78-54 125-125 125-67 0-97-36-110-65-15-33-15-71-15-97v-359c0-11 9-21 21-21h875c11 0 21 10 21 22 0 80-66 145-146 145h-392l49 83h426z m31 152c11 0 21-9 21-21 0-11-10-21-21-21-12 0-21 10-21 21 0 12 9 21 21 21z m-764-83c-35 0-63 28-63 62 0 35 28 63 63 63s62-28 62-63c0-34-28-62-62-62z" horiz-adv-x="1000" />

<glyph glyph-name="bat" unicode="&#xe810;" d="M965 752c0 1 0 1 0 1-1 2-1 3-2 4-1 1-1 2-2 3-1 1-2 2-3 2-1 1-2 2-4 3-1 0-2 0-3 1-1 0-3 1-4 1-1 0-1 0-1 0-1 0-2-1-4-1-1 0-2 0-3 0 0 0 0-1-1-1-1 0-2-1-3-2-1-1-3-1-3-2-1-1-2-2-3-3-1-1-2-2-2-3-1-1-1-3-1-4-1-1-1-3-1-4 0-1 0-1 0-1 0-126-191-229-425-229s-425 103-425 229c0 0 0 0 0 1 0 1 0 3-1 4 0 1 0 3-1 4 0 1-1 2-2 3-1 1-1 2-2 3-1 1-2 1-3 2-2 1-3 2-4 2-1 0-1 1-1 1-1 0-2 0-3 0-1 0-2 1-4 1 0 0 0 0 0 0-2 0-3-1-5-1-1-1-2-1-3-1-2-1-3-2-4-3-1 0-2-1-3-2-1-1-1-2-2-3-1-1-1-2-2-4 0 0 0 0 0-1-85-259 1-390 83-517 3-6 9-9 15-10 7-1 13 2 17 6 38 39 89 13 104 4 47-28 84-89 64-149-3-10 1-20 9-25 9-5 19-3 26 4 14 14 44 22 71 11 36-14 55-57 55-122 0-12 10-21 21-21s21 9 21 21c0 65 20 108 55 122 27 11 57 3 71-11 7-7 18-9 26-4s12 15 9 25c-20 60 18 121 65 149 14 9 65 35 103-4 4-4 10-7 17-6 6 1 12 4 15 10 82 127 168 258 83 517z m-569-186c33-5 67-8 104-8 37 0 72 3 104 8-9 30-17 70-13 104 0 9-5 18-14 21-8 3-18 1-24-7-24-32-41-59-53-84-12 25-29 52-53 84-6 8-15 10-24 7-9-3-14-12-13-21 3-34-5-74-14-104z" horiz-adv-x="1000" />

<glyph glyph-name="bear" unicode="&#xe811;" d="M1000 575c0 62-58 113-128 113-32 0-62-10-85-29-76 58-177 90-287 90-110 0-211-32-286-90-24 19-54 29-85 29-71 0-129-51-129-113 0-48 36-91 88-106-8-30-12-62-12-95 0-233 190-423 424-423 234 0 424 190 424 423 0 33-4 65-11 95 51 15 87 58 87 106z m-750-115c0 34 28 62 63 62s62-28 62-62-28-63-62-63-63 28-63 63z m409-140l-158-154v-102c0-12-9-21-21-21s-21 9-21 21v91l-155 165c-6 7-8 15-4 23 3 8 10 13 19 13h325c9 0 16-6 20-13 3-8 1-17-5-23z m-13 77c-35 0-63 28-63 63s28 62 63 62 62-28 62-62-28-63-62-63z" horiz-adv-x="1000" />

<glyph glyph-name="bee" unicode="&#xe812;" d="M728 850c-105 0-141-58-150-119-22 14-48 21-79 21-28 0-52-7-73-19-14 76-69 117-159 117-12 0-21-9-21-21s9-21 21-21c80 0 118-34 120-107-28-34-44-85-45-150 48 39 99 67 149 75l2 1 3 0c2 0 4 0 6-1-2 1 0 1 2 1l5-1c49-8 100-35 148-73-2 61-16 109-41 143 1 78 35 112 112 112 12 0 21 10 21 21 0 12-9 21-21 21z m-188-625c-5 14-10 27-14 42h-52c-4-15-9-28-14-42h80z m-53 83h26c-5 18-9 36-13 54-4-18-8-36-13-54z m71-125h-116c-6-14-13-28-21-41h158c-7 13-14 27-21 41z m-230-208h346c7 13 13 27 19 42h-384c5-15 12-29 19-42z m291 109c-4 5-8 11-12 16h-213c-5-5-9-11-13-16-9-10-19-18-28-26h294c-9 8-19 16-28 26z m-118-234c55 0 107 30 147 83h-293c39-53 91-83 146-83z m-151 262c-24-26-49-40-73-40l0 0c-13 0-27 4-41 12-40 22-55 63-45 124 23 138 171 314 288 351 5-137-49-358-129-447z m414-28c-40-22-77-13-114 28-80 89-134 310-129 447 117-37 265-213 288-352 11-60-5-101-45-123z" horiz-adv-x="1000" />

<glyph glyph-name="bird" unicode="&#xe813;" d="M964 788c-68 36-130 53-186 53-187 0-276-189-361-372-82-176-159-342-313-342l0 0c-17 0-36 2-54 6-11 2-21-4-25-14-3-10 2-21 12-26 111-50 228-82 337-93v-121c0-11 10-20 21-20s21 9 21 20v118c14-1 42 3 42 3v4c0 0-1 0 0 0v-125c0-11 9-20 20-20s21 9 21 20v118c133 8 235 55 289 134 78 115 86 257 93 382 7 136 15 220 79 237 9 2 15 9 16 17 1 9-4 17-12 21z m-197-11c34 0 62-29 62-64s-28-64-62-64c-35 0-63 29-63 64 0 35 28 64 63 64z m72-261c-1-9-1-18-2-27-49 15-104 10-154-16-64-34-114-98-138-175-26-87-14-181 31-249-14-3-29-5-45-7-44 77-54 174-26 268 27 88 85 161 159 199 56 30 118 37 176 22-1-5-1-10-1-15z" horiz-adv-x="1000" />

<glyph glyph-name="bug" unicode="&#xe814;" d="M809 432c-2 23-6 45-13 65l16 18c70 78 105 117 105 241v21c0 12-10 21-21 21-12 0-21-9-21-21v-21c0-108-26-137-94-213l-3-4c-7 11-14 22-22 31-23 27-53 47-91 61-3 25-13 50-29 72 45 19 114 56 114 102v14c0 11-9 21-21 21-11 0-21-10-21-21v-14c0-18-52-50-102-70-29 24-64 40-104 40-40 0-76-16-104-41-53 21-106 54-106 71v14c0 11-10 21-21 21s-21-10-21-21v-14c0-46 71-84 117-104-15-21-24-45-28-71-37-13-67-33-90-60-10-11-19-24-26-38l-8 9c-74 84-90 102-90 215v21c0 12-9 21-21 21s-21-9-21-21v-21c0-129 26-158 101-243l14-15c2-3 6-5 9-6-5-18-9-37-11-58-106-33-154-109-154-246v-36c0-11 9-21 21-21s20 10 20 21v36c0 112 33 172 111 201 1-25 3-52 7-82 1-3 2-7 2-10-2-2-4-5-5-7l-7-19c-59-147-75-186-21-352 3-8 11-14 20-14 2 0 4 0 6 1 11 3 17 15 14 26-45 139-39 176 7 293 50-210 165-365 279-365 3 0 5 0 5 1 3-1 5-1 8-1 114 0 228 153 278 361 44-114 51-151 6-289-4-11 2-23 13-26 2-1 4-1 7-1 8 0 16 6 19 14 54 165 38 205-20 352l-8 19c-1 1-2 3-3 4 1 5 2 9 2 13 5 29 7 55 7 80 75-30 107-89 107-199v-36c0-11 9-21 21-21s20 10 20 21v36c0 134-46 210-149 244z" horiz-adv-x="1000" />

<glyph glyph-name="butterfly" unicode="&#xe815;" d="M688-22c-51 0-122 26-188 145-65-119-137-145-188-145-79 0-144 63-171 121-20 45-23 87-8 126 11 30 32 57 63 81-171 14-171 183-171 240 0 53 0 176 101 176 20 0 42-4 67-13 106-37 247-171 307-284 61 113 201 247 307 284 26 9 48 13 67 13 101 0 101-123 101-176 0-73-11-125-35-164-28-46-74-71-136-76 31-24 52-51 64-81 14-39 11-81-9-126-27-58-92-121-171-121z" horiz-adv-x="1000" />

<glyph glyph-name="camel" unicode="&#xe816;" d="M999 676c-4 76-88 106-167 110-9 32-37 57-65 57-23 0-48-17-48-65 0-18 1-44 2-73 3-82 9-273-19-297-20-22-50-35-80-35-33 0-63 15-83 41-29 80-108 134-196 134-80 0-152-44-187-113-80-5-156-92-156-181 0-135 69-212 201-227l39-165c1-2 1-4 2-5h105c1 2 2 4 2 7l20 160h223l39-162c0-2 1-4 2-5h104c1 2 2 5 3 7l19 172c76 14 129 42 158 83 34 47 37 109 9 190-30 85-44 275-48 340h101c0 0 0 0 0 0 12 0 21 9 21 21 1 2 0 4-1 6z" horiz-adv-x="1000" />

<glyph glyph-name="cat" unicode="&#xe817;" d="M832 834c-6 9-19 11-28 4-13-9-26-18-39-27-81-56-165-114-179-192-68 8-106 7-171 1-14 79-100 139-183 197-11 8-23 15-33 23-10 7-22 5-29-4-149-200-169-425-169-620 0-212 203-360 495-360h7c292 0 496 148 496 360 0 205-20 421-167 618z m-156-417c35 0 64-28 64-63s-29-64-64-64-65 29-65 64 29 63 65 63z m-357 0c36 0 65-28 65-63s-29-64-65-64-64 29-64 64 29 63 64 63z m52-338c-1 0-2 0-4 0l-220 42c-11 2-18 13-16 24 2 11 13 19 24 17l220-42c11-2 19-13 17-24-2-10-11-17-21-17z m0 86c-1 0-2 0-4 0l-220 41c-11 2-18 13-16 25 2 11 13 18 24 16l220-41c11-2 19-13 17-25-2-10-11-16-21-16z m129-40v-102c0-12-9-21-20-21s-21 9-21 21v107l-90 104c-5 6-7 17-3 25 3 7 11 14 19 14h188c8 0 16-5 19-12 4-8 2-16-3-22l-89-114z m312-4l-220-42c-1 0-2 0-4 0-10 0-18 7-20 17-2 11 5 22 16 24l220 42c12 2 22-5 25-17 2-11-6-22-17-24z m0 85l-220-41c-1 0-2 0-4 0-10 0-18 6-20 16-2 12 5 23 16 25l220 41c12 2 22-5 25-16 2-12-6-22-17-25z" horiz-adv-x="1000" />

<glyph glyph-name="cheetah" unicode="&#xe818;" d="M707 480c0 0-1 0-1 1-7-13-11-30-12-49 1 0 2 0 3 0 6-1 13 0 18 4 6 3 9 9 11 15 3 13-6 26-19 29z m-412 1c-1-1-1-1-1-1-14-3-22-16-19-29 1-6 5-12 10-15 6-4 12-5 19-4 1 0 2 0 2 0-1 19-5 36-11 49z m681 158c0 117-70 211-157 211-73 0-135-67-152-161-102 29-232 29-334 0-17 94-79 161-152 161-87 0-157-94-157-211 0-66 23-127 61-166-14-63-5-216 5-268 45-239 179-355 410-355s365 116 410 355c10 52 19 205 5 268 38 39 61 100 61 166z m-209-197c-4-17-14-32-29-41-11-7-23-11-36-11-3 0-5 1-8 1 5-59 23-132 45-197 18-52 13-104-14-149-22-36-57-62-89-67-8-1-22-3-38-3-26 0-59 5-84 27-5 5-10 11-14 17-4-6-9-12-14-17-25-22-57-27-84-27-16 0-30 2-37 3-33 5-68 31-90 67-27 45-32 97-14 149 23 65 41 137 45 197-2 0-5-1-8-1-12 0-25 4-35 11-15 9-25 24-29 41-6 28 7 56 29 70-3 6-4 13-1 20 5 10 17 15 28 10 105-50 42-270 10-362-18-53-1-94 11-113 17-29 43-45 60-48 41-6 70-1 87 14 11 10 18 26 20 48l-91 148c-4 7-4 16 0 23 3 6 10 12 18 12h190c8 0 15-4 18-11 4-6 4-14 0-21l-90-157c3-19 9-33 19-42 17-15 46-19 88-13 16 2 42 18 60 47 12 19 28 60 10 114-32 92-95 311 11 361 10 5 22 0 27-10 4-7 2-14-1-20 23-14 36-42 30-70z" horiz-adv-x="1000" />

<glyph glyph-name="chicken" unicode="&#xe819;" d="M91 599l-68-21c-1 0-3 0-4 0-7 0-13 3-17 8-5 6-7 15-4 22l30 67c5-17 49-66 63-76z m911-190c-7-34-37-61-79-74 12-20 15-39 10-57-10-35-49-59-119-74 1-6 1-11 1-17 0-103-111-178-267-185v-110c11 0 20-10 20-21s-9-21-20-21h-42c-12 0-21 9-21 21s9 21 21 21v110c-133 4-235 56-264 136-97 71-92 155-82 305 6 102-9 140-17 163-1 2-2 3-2 5-45 20-75 64-75 114 0 69 56 125 125 125s125-56 125-125c0-11 4-29 5-33 14-50 68-220 163-308 55 6 102 1 149-12 15 11 30 22 44 32 81 59 150 110 216 110 19 0 37-5 53-13 61-33 60-76 56-92z m-270-139c0 12-10 21-21 21-11 0-21-9-21-21 0-82-107-144-249-144-12 0-21-9-21-21s9-21 21-21c168 0 291 79 291 186z" horiz-adv-x="1000" />

<glyph glyph-name="cow" unicode="&#xe81a;" d="M179 433c0 73 26 143 68 197-129-9-217-86-248-166-3-9 0-24 9-29 40-26 111-57 174-57 1 0 1 0 1 0-2 42-4 39-4 55z m822 32c-30 79-117 157-245 167 43-54 68-121 68-194 0-16-1-34-4-52 64 0 133 29 172 55 9 5 12 15 9 24z m-348 205h36c67 0 115 52 115 125 0 11-9 21-21 21s-21-10-21-21c0-40-23-83-73-83h-145c-1 0-2-1-4-1-12 2-25 3-38 3-13 0-26-1-38-3-1 0-2 1-3 1h-126c-46 0-83 37-83 83 0 11-9 21-21 21s-21-10-21-21c0-69 56-125 125-125h15c-77-49-129-135-129-232 0-75 29-180 74-268h413c45 88 74 193 74 268 0 97-51 183-129 232z m-256-305c-34 0-62 28-62 63s28 62 62 62 63-28 63-62-28-63-63-63z m209 0c-35 0-63 28-63 63s28 62 63 62 62-28 62-62-28-63-62-63z m-306-237c-3-10-6-20-6-30v-108c0-25 14-57 44-74 66-22 114-32 162-32l0 0c48 0 97 10 169 35 26 14 42 50 42 76v110c0 8-2 16-4 23h-407l0 0z m119-125c0-11-9-21-21-21s-21 10-21 21v84c0 11 10 20 21 20s21-9 21-20v-84z m209 0c0-11-10-21-21-21-12 0-21 10-21 21v84c0 11 9 20 21 20 11 0 21-9 21-20v-84z" horiz-adv-x="1000" />

<glyph glyph-name="dinosaur" unicode="&#xe81b;" d="M731 113c-141 1-314 95-344 360-109-77-177-193-238-298-47-82-89-153-139-185-8-5-11-15-8-24 3-9 13-15 22-14 155 18 239 53 281 77v-60c0-11 9-21 21-21h125c11 0 20 10 20 21v80c40 6 68 5 84 3v-83c0-11 9-21 21-21h151c6 0 12 3 16 8 4 5 6 12 4 18-5 24-18 77-16 139z m258 326c-20 13-37 26-54 40 22 66 38 166 26 226-2 9-9 16-18 17-10 1-18-4-22-13-17-41-45-81-77-112-36 37-58 68-61 135-1 11-10 20-21 20-160 0-266-83-333-259-2-4-2-7-2-10 26-242 181-328 305-328 74 0 143 29 195 84 6 6 7 16 3 23-15 31-21 54-24 70 18 3 36 1 52-5 6-3 12-3 17 0 5 2 9 7 11 12 9 27 13 55 13 83 0 7-3 14-10 17z m-257 1c-35 0-63 28-63 63 0 34 28 63 63 63s63-29 63-63c0-35-28-63-63-63z" horiz-adv-x="1000" />

<glyph glyph-name="dog" unicode="&#xe81c;" d="M425 207c11-13 24-28 39-44 14-15 29-31 44-49 13 17 27 32 39 46 15 17 29 32 39 47-65 13-97 13-161 0z m313 152c-13 24-25 47-37 72-41 82-83 168-145 183h-112c-62-15-104-101-145-183-12-25-24-48-36-71-8-12-19-28-30-43 14-213 102-314 271-314 168 0 255 97 271 304-14 18-28 38-37 52z m-434-15c0 30 25 55 56 55 30 0 55-25 55-55s-25-56-55-56c-31 0-56 25-56 56z m325-129c-10-26-31-48-55-75-16-19-34-40-51-64-4-4-9-4-15-4 0 0 0 0 0 0-6 0-11 0-14 4-19 25-39 41-56 60-25 26-46 50-57 75-3 5-3 11 0 16 2 5 7 9 12 10 95 21 129 21 224 0 5-1 9-3 12-8 2-5 2-9 0-14z m20 73c-30 0-55 25-55 56s25 55 55 55 56-25 56-55-25-56-56-56z m225 403c-4 4-10 6-15 6h-359-359c-5 0-11-2-14-6-64-65-146-223-131-323 5-35 23-62 51-76 19-11 38-16 55-16 28 0 51 13 72 33 13 14 39 51 52 72 12 22 24 44 36 68 46 94 94 190 177 206h55l0 1c0 0 1-1 1-1 0 0 1 0 1 0h4 4c1 0 1 0 1 0 0 0 1 1 1 1l0-1h55c83-16 131-112 177-206 12-24 24-46 36-68 13-21 40-58 52-72 21-20 44-33 72-33 18 0 36 5 56 16 27 14 45 41 50 76 16 100-67 258-130 323z" horiz-adv-x="1000" />

<glyph glyph-name="dolphin" unicode="&#xe81d;" d="M302-22c-6 0-12 4-16 8-50 58-62 72-106 87-29-1-99-31-147-65-7-5-16-5-23 0-7 4-11 12-10 21 12 75 71 168 174 199 102 195 246 322 317 377-32 46-89 57-122 59-10 1-18 8-19 18-1 10 5 20 14 23 70 21 159 9 236-30 13 7 24 12 34 16 57 21 101 31 138 31 62 0 106-29 138-91 55-6 82-19 89-43 6-21-9-40-24-51-4-3-9-4-14-4-59 5-123-4-192-27 5-74-23-194-39-219-5-8-15-11-24-8s-15 11-15 20c0 29-16 59-49 86-15 13-26 30-30 49-146-84-267-195-322-249 14-49 31-130 33-177 0-2 1-6 1-8 0-12-10-22-22-22 0 0 0 0 0 0z" horiz-adv-x="1000" />

<glyph glyph-name="dove" unicode="&#xe81e;" d="M600-150c-135 0-165 88-188 153-3 10-7 20-11 29-106 4-136 54-163 98-25 42-47 79-141 79-7 0-14 4-18 10-3 7-3 15 1 21 41 68 76 99 114 99 28 0 49-16 69-30 16-12 31-24 46-24 62 0 171 110 268 206 108 108 181 189 263 311 4 7 11 10 18 10 8-1 14-5 18-12 60-121 73-325-20-480-48-77-139-170-312-181 18-58 111-65 153-65 63 0 118-43 123-96 1-22-4-97-155-122-23-4-45-6-65-6z m-428 528c7 2 15 3 22 3 41 0 71-23 93-39 8-6 19-14 24-15 40 0 146 103 219 176 13 104-8 210-40 277-22 46-48 70-75 70-5 0-11-2-15-6-15-15-23-40-35-75-20-60-50-152-141-243-55-55-59-109-53-144 0-2 1-3 1-4z" horiz-adv-x="1000" />

<glyph glyph-name="duck" unicode="&#xe81f;" d="M922 662h-52c-14 47-67 104-134 104-76 0-140-66-140-143l4-53c1-118-19-193-51-225-10-11-8-16-38-17h-490c-12 0-21-9-21-21 0-40 23-76 61-106-14-25-21-53-21-82 0-69 46-185 356-185 265 0 394 56 416 181 15 87-27 319-37 373 2 0 3 1 4 1 9 3 17 6 22 6h131c42 0 68 43 68 83 0 42-39 84-78 84z m-754-470c-66 22-110 58-123 95h123v-95z m136-21c-34 0-66 4-95 10v106h354c-20-59-121-116-259-116z m426 412c-34 0-63 28-63 62s29 63 63 63 63-28 63-63-28-62-63-62z" horiz-adv-x="1000" />

<glyph glyph-name="eagle" unicode="&#xe820;" d="M38 222c0 0 1-1 1-1 26-10 44-35 44-64 0-15 13-27 28-27s27 12 27 27c0 38 31 69 69 69s69-31 69-69c0-15 13-27 28-27 15 0 27 12 27 27 0 38 31 69 69 69s69-31 69-69c0-15 13-27 28-27s27 12 27 27c0 38 31 69 69 69s69-31 69-69c0-15 13-27 28-27 7 0 14 3 19 8 5 5 8 12 8 19 0 4 1 7 2 9 8 31 12 51 13 78-38 93-61 170-70 234-19 59-66 226-36 372h-334c-71 0-286 0-286-213l0-406c11-1 23-4 32-9z m321 503c35 0 63-28 63-62s-28-63-63-63-62 28-62 63 28 62 62 62z m586 4c-52 76-148 117-277 120-26-117 4-262 28-341 152-17 176-119 197-210l3-14c3-9 10-16 19-16 9-1 18 5 21 13 74 200 77 351 9 448z m-178-566c-8-24-17-45-29-54-13-13-30-20-48-20-39 0-70 30-70 68 0 15-12 27-27 27s-27-12-27-27c0-38-31-68-69-68-39 0-70 30-70 68 0 15-12 27-27 27-15 0-27-12-27-27 0-38-31-68-69-68s-70 30-70 68c0 15-12 27-27 27-15 0-27-12-27-27 0-38-31-68-69-68s-70 30-70 68c0 12-7 22-19 26-3 1-16 3-16 6v-228c0-1 14-111 164-111h624c4 0 8 1 12 4 3 2 82 59 3 220-15 31-29 61-42 89z" horiz-adv-x="1000" />

<glyph glyph-name="elephant" unicode="&#xe821;" d="M984-123c-1 434-136 793-328 922-25 1-60 1-90-2 0 0-1-1-1-1-109-12-219-107-205-238 13-124 129-215 259-201 11 1 21-7 22-18 2-12-7-22-18-23-10-1-20-2-30-2-140 0-250 102-265 240-13 131 62 252 229 280v0c0 3 13 5 24 6-24 6-53 10-78 10-272 0-488-430-488-979 0-12 7-21 19-21h208c12 0 21 9 21 21 0 71 45 130 101 130s101-59 101-130c0-12 9-21 21-21h168c12 0 21 9 21 21 0 255 43 355 94 431 61-79 90-221 90-431 0-12 10-21 21-21h83c0 0 1 0 1 0 11 0 21 9 21 21 0 2 0 4-1 6z m-333 539c-36 0-65 29-65 65s29 66 65 66c37 0 66-29 66-66s-29-65-66-65z" horiz-adv-x="1000" />

<glyph glyph-name="fish" unicode="&#xe822;" d="M997 349c-95 148-218 215-364 215h-2l-77 102c-6 7-16 18-24 14l-227-94c-6-3-11-8-13-15-1-6 1-13 5-18l46-53c-48-33-104-76-134-100-41 86-87 130-138 130-37 0-61-26-64-28-6-8-7-18-1-26 104-157 42-301 39-307-3-6-2-13 1-19 4-6 10-10 17-10l8 0c50 0 89 14 116 42 21 22 30 47 35 66 95-40 193-66 292-77l-28-93c-4-11 2-22 13-26l99-32c2-1 5-1 7-1 7 0 14 4 18 11l72 135c5 0 9 0 13 1 178 11 260 85 263 88 5 4 7 10 7 16 0 5-2 10-7 14l-14 12 38 31c8 7 9 14 4 22z m-205-12c-36 0-65 29-65 65 0 36 29 65 65 65s65-29 65-65c0-36-29-65-65-65z" horiz-adv-x="1000" />

<glyph glyph-name="flamingo" unicode="&#xe823;" d="M749 300c-52 52-113 81-167 81 0 0 0 0 0 0-52 0-92-29-127-56-39-30-63-46-91-31-10 5-16 10-18 16-3 13 14 40 33 69 36 56 85 131 78 236 49 3 91 22 91 98 0 72-59 127-136 127h-23c-28 0-47-12-54-32-103-8-182-86-182-185v-157c0-12 9-21 21-21 11 0 21 9 21 21 0 82 64 149 146 152-2-48-44-115-85-180-64-102-130-206-77-281 54-92 138-90 200-88 8 0 16 0 23 0 10 0 24 0 43 0v-188c0-11 9-21 20-21 12 0 21 10 21 21v154l78-53-33-58c-6-10-2-23 8-29 3-2 7-3 10-3 7 0 14 4 18 11l43 74c5 10 3 22-6 28l-93 64c34 0 71 0 108 0 89-1 177-1 207-1 12 0 21 9 21 21 0 71-36 150-98 211z" horiz-adv-x="1000" />

<glyph glyph-name="fox" unicode="&#xe824;" d="M316 445c-7 0-12-1-18-3 0-38 61-84 103-84 6 0 12 1 17 4 0 37-60 83-102 83z m672 374c-4 4-10 6-15 6-103 0-297-51-393-148-2-1-2-3-3-4 52-15 86-45 86-82 0-11-9-21-21-21-11 0-21 10-21 21 0 21-47 51-121 51s-121-30-121-51c0-11-9-21-21-21-11 0-20 7-20 18 0 37 34 78 86 78 0 0 0 0 0 0-1 0-2 7-3 8-97 97-291 150-394 150-5 0-11-2-15-6-4-4-6-9-6-14 2-82 54-194 95-284 9-19 17-36 24-52v-185c0-109 68-230 165-230 0 0 1 0 2 0v155c0 12 9 21 20 21 12 0 21-9 21-21v-194c0-77 91-139 167-139 75 0 167 62 167 139v194c0 12 9 21 20 21 12 0 21-9 21-21v-155c0 0 1 0 1 0 95 0 166 121 166 230v185c7 17 15 34 24 53 41 90 93 201 95 283 0 6-2 11-6 15z m-731-377c0 16 10 32 25 38 10 4 22 6 34 6 63 0 144-60 144-124 0-17-10-32-26-39-10-4-21-6-33-6-63 0-144 60-144 125z m243-464c-37 0-68 30-68 68s31 68 68 68c38 0 68-30 68-68s-30-68-68-68z m99 339c-11 0-23 2-33 6-15 7-25 22-25 39 0 64 81 124 144 124 12 0 23-2 33-6 16-7 26-22 26-38 0-65-81-125-145-125z m-17 45c5-2 11-3 17-3 42 0 103 45 103 83-5 2-11 3-17 3-42 0-103-46-103-83z" horiz-adv-x="1000" />

<glyph glyph-name="frog" unicode="&#xe825;" d="M437 610c0-121-95-220-215-228 31-71 145-126 277-126s247 55 277 126c-119 8-214 107-214 228 0 21 3 40 8 59-47 5-95 5-141 0 5-19 8-38 8-59z m384-227c-27-97-158-168-322-168s-295 71-321 168c-42 6-81 23-113 48-2-9-3-19-3-29 0-149 196-271 437-271 241 0 438 122 438 271 0 10-2 20-3 29-32-25-71-42-113-48z m-613 415c-104 0-188-84-188-188 0-103 84-187 188-187s187 84 187 187c0 104-84 188-187 188z m0-250c-35 0-63 28-63 62s28 63 63 63 62-28 62-63-28-62-62-62z m583 250c-103 0-188-84-188-188 0-103 85-187 188-187 103 0 187 84 187 187 0 104-84 188-187 188z m0-250c-35 0-63 28-63 62s28 63 63 63c34 0 62-28 62-63s-28-62-62-62z m147-273c-73-110-240-185-439-185-198 0-364 74-438 184-40-61-61-130-61-201v-171h42 916 42v171c0 72-21 141-62 202z" horiz-adv-x="1000" />

<glyph glyph-name="giraffe" unicode="&#xe826;" d="M305 743c-10 15-16 30-17 40-1 6-5 11-9 15-42 28-180 48-236 48-11 0-21-9-21-20-2-69 22-181 184-223 19 56 54 104 99 140z m673 83c0 11-9 20-21 20-56 0-194-20-235-48-5-4-9-9-9-15-2-10-8-25-18-40 45-36 80-85 99-140 162 42 186 154 184 223z m-365-81c20 15 33 39 33 66 0 12-9 21-21 21-11 0-20-9-20-21 0-23-19-41-42-41h-42c-1 0-2-1-3-1-6 0-12 1-18 1s-11-1-17-1c-1 0-2 1-3 1h-43c-22 0-41 18-41 41 0 12-9 21-21 21s-21-9-21-21c0-27 14-51 34-66-94-42-159-136-159-245v-105c0-6 3-11 6-15l78-78v-263c0-104 82-185 187-185 104 0 188 84 188 187v263l77 76c4 4 6 9 6 15v103c0 110-65 204-158 247z m-280-309c-12 0-21 10-21 21s9 21 21 21 21-9 21-21-10-21-21-21z m87 35c-3-2-7-3-11-3-7 0-13 3-17 9-24 36-77 48-118 27-1 0-2 0-3-1 1 16 2 32 6 47 55 17 119-3 149-50 7-10 4-22-6-29z m60-451c0-12-10-21-21-21s-21 9-21 21v41c0 12 9 21 21 21s21-9 21-21v-41z m83 0c0-12-9-21-21-21s-21 9-21 21v41c0 12 10 21 21 21s21-9 21-21v-41z m103 416c-11 0-21 10-21 21s10 21 21 21c12 0 21-9 21-21s-9-21-21-21z m63 70c-40 18-91 6-114-29-4-6-10-9-17-9-4 0-8 1-11 3-10 7-13 19-6 29 29 45 88 65 142 52 4-15 6-31 6-46z" horiz-adv-x="1000" />

<glyph glyph-name="gorilla" unicode="&#xe827;" d="M959 534c0 84-62 124-113 113-9-2-17-6-23-10-83 156-220 213-324 213-104 0-241-57-324-213-6 4-14 8-24 10-48 11-110-34-110-113v-11c0-58 0-118 50-131-26-140 6-279 89-384 80-100 196-158 319-158s240 58 319 158c83 105 114 244 88 384 53 13 53 70 53 142z m-151-314c0-131-129-277-301-277s-302 147-302 279c0 52 22 102 60 139-39 26-60 62-60 106 0 76 65 134 152 134h299c87 0 152-57 152-134 0-45-22-84-60-110 39-37 60-85 60-137z m-152 340h-299c-64 0-110-39-110-93 0-37 21-65 63-83 7-3 12-9 13-17 1-7-3-15-9-19-43-31-67-77-67-126 0-110 113-238 260-238 146 0 260 127 260 236 0 48-24 92-68 123-6 5-9 12-9 19 1 8 6 14 13 17 41 18 64 50 64 88 0 54-47 93-111 93z m-154-212c39 0 70-30 70-67 0-11-9-21-21-21-11 0-20 10-20 21 0 14-13 25-29 25s-28-11-28-25c0-11-10-21-21-21s-21 10-21 21c0 37 31 67 70 67z m-218 117c0 37 32 67 70 67s70-30 70-67-31-67-70-67-70 30-70 67z m382-322h-333c-11 0-21 9-21 21s10 21 21 21h333c12 0 21-10 21-21s-9-21-21-21z m-16 255c-39 0-70 30-70 67s31 67 70 67 70-30 70-67-32-67-70-67z" horiz-adv-x="1000" />

<glyph glyph-name="hipo" unicode="&#xe828;" d="M983 527c-2 5-6 9-11 12-6 2-12 2-17-1l-15-6c-27-13-50-23-65-23-5 0-9 1-14 8-2 2-3 4-2 7 2 12 17 40 100 96 8 6 11 16 7 25-39 93-96 129-153 102-58-28-105-80-151-132-28 13-62 16-108 16-5-1-11-2-15-6-4-4-6-9-6-15 0-24 1-51 13-92-47 15-104 28-164 28-207 0-381-121-381-264v-82c0-72 54-114 117-126 0-3 1-5 2-8 5-10 9-19 14-28 13-25 21-42 21-79 0-6 3-10 6-14h31c21-1 88 0 109 0h31c3 4 6 8 6 14 0 38 8 54 21 78 4 9 9 18 14 29 1 1 1 3 1 4h54c0-1 0-3 0-4 6-11 11-20 15-29 13-23 21-39 21-78 0-6 2-10 6-14h30c16 0 47 0 66 0h31c3 4 5 8 5 14 0 39 8 55 21 78 5 9 10 18 15 29 1 2 1 4 1 6 64 17 169 140 187 237 81 10 130 33 155 73 24 36 24 84 2 145z m-280-116c-35 0-65 30-65 66s29 65 65 65 65-29 65-65c0-36-29-66-65-66z" horiz-adv-x="1000" />

<glyph glyph-name="horse" unicode="&#xe829;" d="M943 592c-79 117-120 131-158 136-2 0-4 1-6 1-14 38-56 91-71 102-6 4-13 5-19 3-6-3-11-8-13-14-7-21-15-88-12-121-36-54-93-151-121-252-33 8-92 20-155 20-103 0-172-32-203-92-24 13-45 20-63 20-72 0-79-90-86-170-4-50-8-108-28-123-7-5-10-14-7-23 3-8 11-14 20-14 85 0 118 54 133 111 1-61 12-121 47-148 0 0 0 0 1-1v-16-125c0-11 9-21 20-21s21 10 21 21v122c24-7 53-13 84-17v-105c0-11 9-21 20-21s21 10 21 21v101c46-4 101-9 125-8 0-17 0-93 0-93 0-11 10-21 21-21s21 10 21 21v96c27 1 56 3 83 7v-103c0-11 10-21 21-21 12 0 21 10 21 21v111c13 5 25 9 32 15 90 76 79 269 37 338 8 43 26 95 43 126 36-44 93-89 141-98 30-6 64 8 78 35 21 41 5 101-48 179z" horiz-adv-x="1000" />

<glyph glyph-name="kangoroo" unicode="&#xe82a;" d="M870 756v69c0 7-4 13-9 17-6 4-13 5-19 3-4-2-92-33-116-123-4-3-8-6-12-9-10-8-19-16-28-24-96-10-398-172-407-437-35-25-66-82-102-146-46-84-99-178-158-198-10-3-16-13-14-23 1-10 10-17 20-17 156 0 228 48 291 91 51 35 95 65 178 65 26 0 50 10 70 19l6 2c51-16 78-131 83-171 2-11 10-18 21-18l132-1c3-1 6-1 9-1 12 0 19 5 23 9 7 8 15 17 14 33l0 27c-1 27-22 58-51 58h-46c47 70 47 135 29 175-15 33-44 53-77 53 2 10 3 21 3 32 0 31 6 81 17 134 1 0 1 0 1 0 7 0 15-14 21-27 11-22 25-51 58-51 11 0 21 9 21 21s-10 21-21 21c-7 0-14 14-21 27-9 20-23 45-49 50 14 58 35 114 61 142 25-11 55-18 86-18 44 0 82 14 106 37 4 4 6 9 6 14 0 73-77 140-126 165z" horiz-adv-x="1000" />

<glyph glyph-name="koala" unicode="&#xe82b;" d="M904 766c-95 0-172-58-208-121-136 108-269 108-406 0-34 64-105 121-201 121-49 0-89-40-89-90v-225c0-53 41-96 92-96h36c-7-28-10-51-10-77 0-231 123-344 375-344 253 0 375 113 375 344 0 26-3 49-9 77h35c49 0 106 42 106 96v225c0 48-45 90-96 90z m-559-436c-37 0-66 30-66 67 0 37 29 67 66 67s67-30 67-67c0-37-30-67-67-67z m238-184c0-46-37-83-83-83s-83 37-83 83v125c0 46 37 84 83 84s83-38 83-84v-125z m82 184c-37 0-67 30-67 67 0 37 30 67 67 67 36 0 66-30 66-67 0-37-30-67-66-67z m-165-17c-23 0-42-19-42-42v-125c0-23 19-41 42-41 23 0 42 18 42 41v125c0 23-19 42-42 42z" horiz-adv-x="1000" />

<glyph glyph-name="layer-2,092" unicode="&#xe82c;" d="M815 207c-50-70-157-65-228-65h-172c-70 0-174 0-225 70-96-87-152-210-152-341 0-12 9-21 21-21 1 0 2 0 3 1v-1h875v1c2 0 3-1 4-1 12 0 21 9 21 21 0 128-54 250-147 336z m-316 176c27 9 41 18 43 38-6 8-23 13-43 13-23 0-39-7-44-13 2-20 14-27 44-38z m-272 76l-18 13c-9 7-11 20-4 29 7 10 20 12 29 5l31-23c20 8 42 14 65 14l3 0c41 54 102 77 168 77 66 0 128-16 170-99h1c15 0 29-2 43-5l48 36c9 7 22 5 29-5 7-9 5-22-4-29l-28-21c25-14 45-35 60-59 14 37 21 77 21 117 0 188-153 341-341 341-188 0-341-153-341-341 0-38 7-76 19-112 12 25 29 45 49 62z m421 221c35 0 63-29 63-63 0-35-28-64-63-64-35 0-64 29-64 64s29 63 64 63z m-298 0c35 0 63-29 63-63 0-35-28-64-63-64s-64 29-64 64 29 63 64 63z m-205-413h64c21-69 90-84 206-84h172c116 0 185 15 206 84h61c11 0 21 9 21 21s-10 20-21 20h-54c-1-14-3-28-8-41h-147c-11 0-20 9-20 21s9 20 20 20h155c0 4 1 7 1 11 0 48-27 91-65 114l-118-88c-4-3-8-4-13-4-6 0-12 2-17 8-6 9-5 22 5 29l96 72c-6 1-11 2-17 2l-23-1c-33 56-89 91-148 91-59 0-114-34-147-89l-24 2c-9 0-17-1-25-3l100-74c9-7 11-20 4-29-4-6-10-8-17-8-4 0-8 1-12 4l-119 88c-35-24-60-66-60-114 0-4 1-7 1-11h152c11 0 21-9 21-20 0-12-10-21-21-21h-144c-5 13-8 27-8 41h-57c-11 0-20-9-20-20 0-12 9-21 20-21z m270 164c10 33 52 45 84 45 42 0 74-17 83-44 1-2 1-5 1-7 0-49-36-68-63-78v-51c15-1 31-1 45-3 12-1 20-12 18-23-1-12-12-20-23-18-39 5-84 5-123-1-1 0-2 0-3 0-10 0-19 7-20 18-2 11 6 22 18 23 15 2 31 3 47 4v50c-30 12-65 29-65 79 0 2 0 4 1 6z" horiz-adv-x="1000" />

<glyph glyph-name="leopard" unicode="&#xe82d;" d="M145 212c4-15 9-28 14-42h-112c-12 0-21 9-21 21s9 21 21 21h98z m-98 83c-12 0-21-9-21-21s9-21 21-21h87c-3 14-5 28-8 42h-79z m916-42c12 0 21 10 21 21s-9 21-21 21h-89c-3-14-5-28-8-42h97z m0-83c12 0 21 9 21 21s-9 21-21 21h-108c-4-15-9-28-14-42h122z m-459 15c16 7 59 35 106 68h-212c48-33 91-61 106-68z m362 68c-4-14-7-28-11-41h-142c-11 0-20-10-20-21s9-21 20-21h128c-22-60-51-115-88-162-69-85-155-130-248-130h-10c-94 0-179 45-248 130-37 47-66 102-88 162h138c11 0 21 9 21 21s-10 21-21 21h-152c-4 13-8 27-11 41h121c12 0 21 10 21 21s-9 21-21 21h-129c-16 95-15 197 4 299-33 11-69 36-98 67-29 33-40 83-26 119 10 24 29 39 55 41 60 6 140-27 174-70 1-1 1-2 1-2 63 28 156 43 264 44 108-1 201-16 264-44 0 0 1 1 1 1 38 48 121 75 174 70 26-2 45-17 55-42 14-36 3-86-26-119-28-30-64-54-98-65 19-102 20-204 4-299h-119c-11 0-21-9-21-21 0-11 10-21 21-21h111v0z m-194 209h-42c-11 0-21-10-21-21s10-21 21-21h42c11 0 21 9 21 21s-10 21-21 21z m-104 229c0-12 9-21 20-21h42c12 0 21 9 21 21s-9 21-21 21h-42c-11 0-20-10-20-21z m-125-84c0-11 9-20 20-20h84c11 0 21 9 21 20s-10 21-21 21h-84c-11 0-20-9-20-21z m-84 84c0-12 10-21 21-21h42c11 0 21 9 21 21s-10 21-21 21h-42c-11 0-21-10-21-21z m-41-250c0-12 9-21 20-21h42c12 0 21 9 21 21s-9 21-21 21h-42c-11 0-20-10-20-21z m0 166c0 12-10 21-21 21h-42c-11 0-21-9-21-21s10-20 21-20h42c11 0 21 9 21 20z m377-326c-2 8-10 14-20 14h-342c-9 0-17-6-20-14s1-19 8-24c137-99 169-113 179-115-4-1-8-2-10-5l-43-43c-8-8-8-21 0-29 4-5 9-7 15-7s10 3 14 7l28 28 28-28c8-9 22-9 30 0 8 8 8 21 0 29l-43 43c-3 3-7 4-11 5 11 2 42 16 180 115 7 5 10 15 7 24z m18 306h42c12 0 21 9 21 20s-9 21-21 21h-42c-11 0-20-9-20-21s9-20 20-20z" horiz-adv-x="1000" />

<glyph glyph-name="lion" unicode="&#xe82e;" d="M927 595c-1 2-2 4-3 6 25 28 38 63 38 101 0 84-69 152-153 152-44 0-85-19-114-51-59 19-125 29-195 29s-136-10-195-30c-29 33-70 52-114 52-84 0-153-68-153-152 0-38 13-73 38-101-1-1-1-2-2-4-18-41-53-117-53-202l3-144c0-9 6-17 14-19l106-36-37-146c-2-7 1-15 6-20 5-5 13-7 20-5l122 35 37-197c2-7 6-12 12-15 2-1 6-2 9-2 3 0 6 0 9 2l180 87 180-87c5-3 12-3 18 0 6 3 10 8 11 15l37 191 122-32c8-2 15 0 20 5 6 5 8 13 6 20l-37 148 105 36c8 3 14 10 14 19l1 146c0 91-32 159-52 199z m-114-222c0-11-9-21-20-21h-84c-11 0-21 10-21 21s10 21 21 21h84c11 0 20-9 20-21z m-479 188h42c11 0 21-10 21-21s-10-21-21-21h-42c-11 0-21 9-21 21s10 21 21 21z m-125-167h84c11 0 20-9 20-21s-9-21-20-21h-84c-11 0-21 10-21 21s10 21 21 21z m118-107l-128-18c0 0-1 0-1 0-11 0-20 18-21 29-1 12 8 27 19 28l128 11c11 1 21-6 22-18 1-11-8-31-19-32z m313 114l-101-118c38-15 64-52 64-95 0-12-9-21-21-21-11 0-20 9-20 21 0 32-26 59-58 61-1 0-3-1-4-1s-3 1-4 1c-32-2-58-29-58-61 0-12-9-21-20-21s-21 9-21 21c0 43 26 80 64 95l-100 118c-6 6-7 15-3 23 3 7 10 12 18 12h248c8 0 15-5 19-12 3-8 2-16-3-23z m7 139c0 11 9 21 21 21h41c12 0 21-10 21-21s-9-21-21-21h-41c-12 0-21 9-21 21z m173-271c-1 0-1 0-2 0l-127 19c-11 1-20 16-19 27 1 12 11 23 22 22l127-8c12-1 20-20 20-31-1-11-10-29-21-29z" horiz-adv-x="1000" />

<glyph glyph-name="monkey" unicode="&#xe82f;" d="M996 617c-15 90-94 154-179 140-42-7-79-33-102-71-64 36-138 55-216 55-78 0-152-19-216-55-23 38-59 64-101 71-85 14-163-50-178-140-8-44 3-88 26-124 22-34 53-57 95-66 0-1 0-2 0-3 0-399 200-483 375-483 174 0 375 84 375 483 0 1 0 2 0 3 42 9 72 32 94 66 23 36 35 80 27 124z m-229-342c0-148-120-269-268-269s-268 120-268 267c0 30 5 59 16 88-8 19-16 41-16 70 0 101 81 218 186 218h164c105 0 186-117 186-218 0-24-5-45-16-70 11-30 16-57 16-86z m-42 156c0 80-64 176-144 176h-164c-80 0-144-96-144-176 0-23 6-41 16-59 2-6 3-12 0-17-11-28-16-54-16-82 0-124 101-225 226-225 125 0 226 102 226 227 0 27-5 51-16 79-3 6-2 12 0 17 12 23 16 40 16 60z m-411 50c0 34 28 61 62 61s62-27 62-61c0-35-28-62-62-62-34 0-62 27-62 62z m144-350c-34 0-62 28-62 62s28 62 62 62c34 0 62-28 62-62s-28-62-62-62z m84 226h-84c-11 0-21 10-21 21s10 21 21 21h84c11 0 20-9 20-21s-9-21-20-21z m80 62c-34 0-61 27-61 62s27 61 61 61 62-27 62-61c0-35-27-62-62-62z" horiz-adv-x="1000" />

<glyph glyph-name="mouse" unicode="&#xe830;" d="M316 79c6-14 12-28 19-41h-167c-12 0-21 9-21 20s9 21 21 21h148z m-190 84c-12 0-21-10-21-21s9-21 21-21h174c-5 14-9 28-14 42h-160z m-42 83c-11 0-21-9-21-21s10-21 21-21h189c-4 14-8 28-12 42h-177z m750-208c12 0 21 9 21 20s-9 21-21 21h-150c-6-14-12-28-18-41h168z m84 208h-179c-4-14-8-28-12-42h191c11 0 20 10 20 21s-9 21-20 21z m-42-125c11 0 21 9 21 21s-10 21-21 21h-162c-4-14-9-28-14-42h176z m-272 377c-12 0-23-10-23-23s11-23 23-23c13 0 23 11 23 23s-10 23-23 23z m-208-2c-12 0-21-9-21-21s9-21 21-21 21 10 21 21-10 21-21 21z m230-292h101c-4-14-8-28-13-41h-88c-12 0-21-10-21-21s9-21 21-21h74c-5-14-11-28-16-42h-58c-12 0-21-9-21-21s9-20 21-20h39c-8-19-17-37-27-54-36 38-85 59-138 59s-102-21-138-59c-10 17-19 35-27 54h41c11 0 21 9 21 20s-10 21-21 21h-60c-5 14-11 28-16 42h76c11 0 21 9 21 21s-10 21-21 21h-90c-5 13-9 27-13 41h103c11 0 21 10 21 21s-10 21-21 21h-115c-28 107-44 208-44 256 0 155 127 282 283 282 156 0 283-127 283-282 0-48-16-149-44-256h-113c-12 0-21-9-21-21s9-21 21-21z m-168 271c0 35-28 63-62 63s-63-28-63-63 28-62 63-62 62 28 62 62z m211 0c0 36-29 64-65 64-35 0-64-28-64-64 0-35 29-64 64-64 36 0 65 29 65 64z m-467-157c-18 86-26 156-26 183 0 159 115 292 267 319-47 33-103 51-161 51-156 0-283-127-283-282 0-127 86-236 203-271z m622 184c0-28-8-98-26-184 117 35 203 144 203 271 0 155-127 282-283 282-58 0-114-18-161-51 152-27 267-159 267-318z m-210-554l0 0c0 0 0 0 0 0-14 17-31 30-51 39-1 1-3 1-5 2-8 3-16 7-25 9-11 2-22 4-33 4-11 0-22-2-33-4-9-2-17-6-25-9-2-1-4-1-5-2-20-9-37-22-51-39 0 0 0 0 0 0l0 0c-2-3-5-5-7-7-5-7-5-17 0-24 38-58 79-88 121-88s83 30 121 88c5 7 5 17 0 24-2 2-5 4-7 7z" horiz-adv-x="1000" />

<glyph glyph-name="panda" unicode="&#xe831;" d="M281 527c-47 0-93-37-137-112-37-63-30-82-28-85 2-4 10-6 22-6 67 0 210 71 280 109-23 31-76 94-137 94z m-3-154c-34 0-62 28-62 62s28 63 62 63 63-28 63-63-29-62-63-62z m234-133c-51 0-88-5-108-11 22-33 64-83 109-83 34 0 67 29 100 84-17 5-52 10-101 10z m220 287c-62 0-115-63-137-94 70-38 213-109 279-109 12 0 20 2 22 6 2 3 9 22-28 85-43 75-89 112-136 112z m2-154c-34 0-62 28-62 62s28 63 62 63 63-28 63-63-28-62-63-62z m253 273c15 30 17 65 6 97-18 52-67 87-121 87-13 0-26-2-38-6-33-11-60-35-74-66-76 44-162 67-251 67-95 0-187-27-266-77-20 49-67 82-120 82-13 0-26-2-38-6-32-10-57-32-72-62-15-30-17-64-6-97 13-37 41-66 77-79-43-72-66-154-66-238 0-264 220-478 491-478 270 0 491 214 491 478 0 86-24 169-69 243 24 11 44 30 56 55z m-849-364c-35 0-51 15-58 27-15 27-6 67 28 127 52 88 110 133 173 133 106 0 181-128 185-133 2-5 3-11 2-16-2-5-5-10-10-13-9-5-220-125-320-125z m397-180v-38c31 7 61 31 90 65 7 8 20 12 29 5 9-8 10-20 3-28-44-52-92-77-144-77-88 0-151 75-154 78-7 9-6 22 2 29s22 1 30-7c0-1 44-56 102-66v39c0 2 1 3 1 4-80 15-135 117-138 122-4 8-2 18 4 24 27 27 116 30 152 30 57 0 129-6 146-33 4-7 5-15 1-21-37-71-79-111-125-121 0-2 1-3 1-5z m398 207c-8-12-24-27-59-27-99 0-310 120-319 125-5 3-9 8-10 13-1 6-1 11 2 16 3 5 79 133 185 133 63 0 121-45 172-133 35-60 44-100 29-127z" horiz-adv-x="1000" />

<glyph glyph-name="parrot" unicode="&#xe832;" d="M961 251c-53 10-106 16-156 20 16 162 6 336-84 434-75 83-134 123-182 123-21 0-37-9-49-19-2 0-4 0-7 0-3-1-34-8-76-43-19-15-29-34-31-57-4-58 50-117 56-124 4-4 10-7 16-7 2 0 5 1 7 2 8 3 14 11 13 20 0 24 3 52 8 63 1-1 2-1 2-1 17-18 43-27 76-27 2 0 3 0 5 0l45-315c1-9 9-16 18-18l78-8-1-19c-383-1-663-153-666-155-10-6-14-18-8-28 4-7 11-11 18-11 3 0 7 1 10 3 3 1 273 148 644 149l-14-339c-1-10 7-19 17-21 1 0 3-1 4-1 9 0 17 6 20 15 4 12 53 166 76 342 50-4 101-9 153-19 12-2 22 5 25 16 2 12-6 23-17 25z m-384 467c-4-4-9-6-15-6-5 0-11 2-15 6-3 4-6 9-6 15s3 11 6 15c8 7 22 7 30 0 4-4 6-10 6-15 0-6-2-11-6-15z m135-335c-1-1-3-1-4-1-10 0-18 7-20 17l-35 166c-2 12 5 23 16 25 11 2 22-5 25-16l34-167c3-11-4-22-16-24z" horiz-adv-x="1000" />

<glyph glyph-name="penguin" unicode="&#xe833;" d="M449-141c6-3 12-6 18-8h-144c-8 0-16 4-19 12-3 7-2 16 3 22l44 53c29-32 61-58 98-79z m471 12c0-11-9-20-21-20 0 0 0 0-1 0h-205c0-1-12-2-29-2-41 0-122 6-195 47-189 104-255 380-209 869 1 5 2 9 5 12 3 3 65 73 149 74 36 0 78-20 113-52 67-63 131-316 202-616 24-102 49-207 60-229 32-15 101-54 117-63 8-3 14-10 14-20z m-554 811c0 6-2 11-6 15-8 8-22 8-29 0-4-4-7-9-7-15 0-5 3-10 7-14 3-4 9-6 14-6 6 0 11 2 15 6 4 4 6 9 6 14z m240-311c-1 12-11 20-23 19-11-2-20-12-18-23 6-59-11-247-18-325-42 55-89 234-112 398-2 12-13 20-24 18-11-2-19-12-18-24 15-100 70-431 167-450 1 0 3 0 4 0 4 0 9 2 12 4 5 4 8 9 9 15 1 12 30 290 21 368z m-526 230c2-8 9-14 17-16l109-21c1 45 4 92 8 141l-125-82c-7-5-10-13-9-22z" horiz-adv-x="1000" />

<glyph glyph-name="shark" unicode="&#xe834;" d="M993 291c-7 8-17 12-29 12-48 0-161-63-210-92-33 60-126 228-157 272 17 14 76 38 138 56 8 2 13 9 15 17 1 8-2 15-9 20-37 26-89 39-155 39-70 0-136-15-159-20-194 117-317 174-376 174-29 0-41-13-47-24-19-40 30-108 52-135 0-1 2-2 3-3 32-26 61-50 86-72-41 17-76 28-79 29-7 3-15 1-21-5-5-5-7-13-5-20 16-57 85-123 211-202 53-217 70-218 87-220 10 0 20 7 22 18 0 1 12 75 28 123 82-41 280-132 319-150l92-166c4-7 11-11 18-11 2 0 4 0 6 1 10 2 16 11 15 21 0 1-6 116-1 158 2 26 82 92 153 138 5 4 9 9 10 15 2 13-3 22-7 27z m-759 312c-4-5-9-7-14-7s-11 2-15 6c-4 4-6 10-6 15 0 6 2 11 6 15 7 8 22 8 29 0 4-4 6-9 6-15s-2-11-6-14z" horiz-adv-x="1000" />

<glyph glyph-name="sheep" unicode="&#xe835;" d="M866 623c-10 15-100 140-191 140-4 0-8 0-13-1-36 55-97 88-162 88-65 0-126-33-162-88-4 1-8 1-13 1-91 0-181-125-191-140-96-143-135-250-135-369 0-6 3-12 7-16 4-4 10-6 16-5 78 8 148 68 194 131 0-6 0-12 0-19-3-163-7-331 84-424 47-48 112-71 200-71 88 0 153 23 200 71 91 93 87 261 84 424 0 7 0 13 0 19 46-63 116-123 194-131 6 0 12 1 16 5s7 10 7 16c0 119-39 226-135 369z m-490-231v83c0 12 9 21 21 21s21-9 21-21v-83c0-12-10-21-21-21s-21 9-21 21z m226-362l-87-87c-4-4-10-6-15-6s-11 2-15 6l-87 87c-8 8-8 22 0 30 8 8 21 8 29 0l73-73 73 73c8 8 21 8 29 0 8-8 8-22 0-30z m24 362c0-12-9-21-21-21s-21 9-21 21v83c0 12 10 21 21 21s21-9 21-21v-83z" horiz-adv-x="1000" />

<glyph glyph-name="snake" unicode="&#xe836;" d="M500 486c88 0 166 106 166 190 0 84-90 101-166 101s-167-17-167-101c0-84 79-190 167-190z m48 161l42 39c8 7 22 7 29-1 8-9 8-22-1-30l-41-39c-4-3-9-5-14-5-6 0-12 2-16 6-8 9-7 22 1 30z m-167 38c7 8 21 8 29 1l42-39c8-8 9-21 1-30-4-4-10-6-15-6-6 0-11 2-15 5l-41 39c-9 8-9 21-1 30z m342 25c-7 2-14 4-21 6 3-12 6-25 6-40 0-98-84-215-186-230v-50c25-9 43-32 43-61 0-11-9-20-21-20-11 0-21 9-21 20 0 13-10 24-23 24s-23-11-23-24c0-11-10-20-21-20s-21 9-21 20c0 29 19 53 45 62v49c-103 13-188 132-188 230 0 13 2 25 5 36l-20-4c-94-27-235-67-235-244 0-135 110-279 198-394 46-60 93-122 93-147h42 250 42c0 25 47 87 93 147 88 116 198 260 198 395 0 177-141 218-235 245z" horiz-adv-x="1000" />

<glyph glyph-name="spider" unicode="&#xe837;" d="M981 140l-117 137c-4 5-11 7-16 8l-137-2 146 68c7 3 11 9 12 16l32 286c1 11-7 21-19 23-11 1-21-7-23-19l-30-273-213-99 156 177c3 3 5 8 6 12l27 332c0 11-8 21-20 22-11 1-21-7-22-19l-26-325-137-154c0 4 1 9 1 14 0 38-9 78-24 111 27 21 41 41 39 57-2 12-13 20-24 18-10-2-17-10-18-20-2-4-11-13-20-20-16 18-36 30-59 30-23 0-43-12-59-30-9 7-18 16-20 20-1 10-8 18-18 20-12 2-22-6-24-18-2-16 12-36 40-57-16-33-25-73-25-112 0-10 1-21 2-31 0 0 0-1 0-1l-127 172-27 326c-1 12-11 20-22 19-12-1-20-11-19-22l27-332c0-4 1-8 4-11l118-160-174 81-30 273c-2 12-12 20-23 19-12-2-20-12-19-24l32-285c1-7 5-13 12-16l146-68-137 2c-5-1-12-3-16-8l-117-137c-8-9-7-22 2-29 4-4 9-5 14-5 6 0 11 2 16 7l110 130 140-2-114-65c-4-3-7-7-9-12l-92-265c-3-11 2-23 13-26 3-1 5-1 7-1 9 0 17 5 20 14l89 257 136 79c-5-14-9-28-12-42-18-59-4-140 34-194 30-43 72-74 121-74 0 0 1 0 1 0s1 0 1 0c49 0 91 31 122 74 37 54 51 137 33 195-3 16-8 32-13 48l148-86 88-257c3-9 11-14 20-14 2 0 5 0 7 1 11 3 17 15 13 26l-92 265c-1 5-5 9-9 12l-113 65 139 2 111-130c4-5 10-7 16-7 4 0 9 1 13 5 9 7 10 20 2 29z" horiz-adv-x="1000" />

<glyph glyph-name="squirrel" unicode="&#xe838;" d="M799 578l70 246c2 6 1 13-3 18-4 5-10 8-17 8-67 0-132-65-168-123 45-40 84-92 118-149z m-598-1c34 57 73 110 118 150-35 58-100 123-168 123-7 0-13-3-17-8-4-5-5-12-3-18l70-247z m474-161c-6 0-23-22-23-66s17-66 23-66c6 0 23 23 23 66s-17 66-23 66z m238-235c-6 24-149 582-413 582-264 0-407-558-413-582-25-99-11-192 39-255 38-49 93-76 156-76 65 0 173 0 218 71 45-71 154-71 218-71 63 0 118 27 156 76 50 63 64 156 39 255z m-588 61c-36 0-64 47-64 108 0 62 28 108 64 108s65-46 65-108c0-62-28-108-65-108z m301-153c0-59-57-108-125-108s-125 49-125 108v11c0 12 9 21 21 21 11 0 21-9 21-21v-11c0-36 39-67 83-67 44 0 83 31 83 67v11c0 12 10 21 21 21 12 0 21-9 21-21v-11z m49 153c-37 0-65 47-65 108 0 62 28 108 65 108s64-46 64-108c0-62-28-108-64-108z m-350 174c-5 0-22-22-22-66s17-66 22-66c6 0 23 23 23 66s-17 66-23 66z" horiz-adv-x="1000" />

<glyph glyph-name="starfish" unicode="&#xe839;" d="M999 447c-5 16-22 34-73 34h-181c-55 0-116 50-133 109l-56 193c-13 45-31 67-56 67-24 0-43-22-56-67l-56-193c-17-59-78-109-133-109h-181c-51 0-68-18-72-34-5-16-2-42 44-73l135-93c48-32 71-109 52-168l-48-150c-12-37-12-64 0-81 16-22 49-20 88 11l145 116c43 34 120 33 161-3l150-128c22-19 41-28 57-28 13 0 23 5 30 15 12 16 13 42 1 80l-52 171c-18 59 7 136 54 168l135 91c46 31 49 56 45 72z m-496 2c8 8 21 8 29 0 4-4 6-9 6-15 0-5-2-11-6-15-4-3-9-6-15-6-5 0-10 3-14 6-4 4-7 10-7 15 0 6 3 11 7 15z m-101-167c-4-5-9-7-15-7s-11 3-14 7c-4 3-7 9-7 14 0 6 3 11 7 15 7 8 21 8 29 0 4-4 6-9 6-15 0-5-2-11-6-14z m44-125c-4-4-9-7-15-7-5 0-10 3-14 7-4 3-6 9-6 14 0 6 2 11 6 15 7 8 22 8 29 0 4-4 6-9 6-15 0-5-2-11-6-14z m71 73c-35 0-63 28-63 63 0 35 28 63 63 63 35 0 63-28 63-63 0-35-28-63-63-63z m104-81c-4-4-10-6-15-6-5 0-11 2-15 6-4 4-6 9-6 15 0 5 2 10 6 14 8 8 22 8 30 0 4-4 6-9 6-14 0-6-2-11-6-15z m28 138c-3-4-9-6-14-6s-11 2-15 6c-4 4-6 9-6 15 0 5 2 10 6 14 8 8 22 8 29 0 4-4 7-9 7-14 0-6-3-11-7-15z" horiz-adv-x="1000" />

<glyph glyph-name="tiger" unicode="&#xe83a;" d="M398 137v-6c0-49 44-86 104-86s104 37 104 86v6c-25-27-61-46-104-46-42 0-78 19-104 46z m583 497c0 108-84 195-188 195-56 0-109-26-144-70-45 18-95 27-149 27s-104-9-148-27c-36 44-89 70-145 70-104 0-188-87-188-195 0-76 43-144 108-176-25-106-25-209-25-261 0-216 64-326 189-326 62 0 165 0 209 70 44-70 147-70 209-70 125 0 189 110 189 326 0 52 0 155-25 261 65 32 108 100 108 176z m-375 95c14-4 28-9 41-15 0 0 1 0 1 0v-51c0-12-9-21-21-21-11 0-21 9-21 21v66z m-83 14c14-1 28-2 42-5v-117c0-12-10-21-21-21-12 0-21 9-21 21v122z m-83-4c13 2 27 3 41 4v-122c0-12-9-21-20-21-12 0-21 9-21 21v118z m-84-24c14 6 28 11 42 15v-67c0-12-9-21-21-21-11 0-21 9-21 21v52z m-212-527l105 70c10 7 23 4 29-6s4-22-6-28l-126-85c-1 15-1 32-2 49z m130-52l-118-79c-2 14-5 29-7 46l102 68c10 6 23 4 29-6 6-9 4-22-6-29z m10 323c0 36 28 65 64 65s64-29 64-65c0-35-29-64-64-64-36 0-64 29-64 64z m364-328c0-72-63-127-146-127s-146 55-146 127v107c0 12 10 21 21 21 12 0 21-9 21-21 0-50 43-105 104-105s104 55 104 105c0 12 10 21 21 21 12 0 21-9 21-21v-107z m7 264c-36 0-65 29-65 64 0 36 29 65 65 65 35 0 64-29 64-65 0-35-29-64-64-64z m189-336l-116 77c-9 7-12 20-5 29 6 10 19 12 29 6l99-67c-2-16-4-31-7-45z m10 82l-124 83c-9 6-12 19-5 28 6 10 19 13 28 6l103-68c0-18-1-34-2-49z" horiz-adv-x="1000" />

<glyph glyph-name="turtle" unicode="&#xe83b;" d="M70 288c-9 0-17 6-20 14-22 66-9 241 171 330 55 28 108 42 158 42 135 0 212-98 250-145 6-8 7-22 0-29-33-34-78-65-135-96-103-55-210-74-297-89-47-8-87-15-120-26-2-1-5-1-7-1z m896 334c-36 47-86 76-132 76-27 0-65-9-95-55-15-24-24-49-32-72-21-62-43-126-194-207-97-52-196-70-284-85-105-18-196-34-227-109-3-7-2-15 2-21 5-6 12-9 19-8 28 4 64-2 102-9-5-6-11-12-16-17-16-16-33-33-28-54 5-20 25-29 40-35 17-6 36-9 54-9 52 0 92 24 110 64 71-11 146-13 210-13l69 1c2-3 7-7 11-11 21-21 56-56 113-56 5 0 11 0 17 1 29 4 57 11 66 33 9 22-5 42-22 66-20 29-45 64-42 111 9 16 16 34 23 53 20 49 41 101 89 146 17-14 42-23 67-23l0 0c19 0 37 4 54 13 26 12 46 40 55 77 12 50 2 104-29 143z m-116-95c-12 0-21 9-21 21s9 21 21 21c11 0 21-10 21-21s-9-21-21-21z" horiz-adv-x="1000" />

<glyph glyph-name="wolf" unicode="&#xe83c;" d="M915 596v236c0 8-4 15-10 19-7 3-15 3-21-1l-182-111c-58 21-130 34-197 34-70 0-148-13-206-34l-185 111c-7 4-15 4-21 1-7-4-11-11-11-19v-236c-38-56-58-125-58-208l7-142c0-8 6-16 14-18l104-35-35-143c-1-7 1-14 6-19 5-6 13-8 20-5l120 34 36-196c1-7 5-12 11-15 6-3 12-3 18 0l176 82 176-82c3-2 6-2 9-2 3 0 6 1 9 2 6 3 10 8 11 15l36 188 120-31c2 0 3 0 5 0 12 0 22 9 22 21 0 3-1 7-3 10l-35 139 102 36c8 2 14 10 14 18l9 143c0 80-21 150-61 208z m-204-78l-87-56v-311c0-2 1-3 1-5s-1-2-1-4v-2c0-6-3-12-7-16-19-26-70-39-119-39-61 0-127 19-127 62 0 4 1 8 3 12v303l-88 56c-10 6-12 19-6 29s19 12 29 6l97-62c6-4 9-11 9-18v-279c24 9 54 14 83 14 30 0 60-5 84-14v279c0 7 4 14 10 18l97 62c10 6 22 3 29-6 6-10 3-23-7-29z m-296-370v-5c9-5 37-16 83-16 50 0 78 13 84 20v2c-6 4-34 17-84 17-46 0-74-11-83-18z" horiz-adv-x="1000" />

<glyph glyph-name="zebra" unicode="&#xe83d;" d="M952 166c-29 48-60 113-89 175-48 102-94 199-143 248-18 18-43 33-72 43 16 74 11 162-29 202-7 7-19 8-27 2-30-23-118-101-103-194-68-12-131-45-179-93-73-73-308-334-310-668 0-6 2-11 6-15 4-4 9-6 15-6h378c6 0 11 2 15 6 10 10 24 26 40 44 44 47 125 136 147 149 5 2 10 4 14 4 21 0 47-31 75-64 14-17 28-34 44-50 17-18 71-72 134-72 29 0 57 11 81 34 67 62 68 148 3 255z m-206 237c34 0 62-28 62-62 0-35-28-63-62-63s-63 28-63 63c0 34 28 62 63 62z m-323-465c-2-3-3-4-5-7-27 22-90 32-190 32-25 0-46 18-68 37-26 22-56 46-97 47 3 14 7 27 11 41 50-4 86-34 113-56 15-13 31-27 41-27 73 0 172-5 218-43-8-8-15-16-23-24z m78 83c-39 112-195 151-231 151-30 0-54 25-78 48-15 16-35 36-48 36 0 0 0 0 0 0 7 13 14 25 21 37 21-8 39-26 57-43 16-16 36-36 48-36 44 0 206-39 262-161-10-9-20-20-31-32z m124 82c-3 1-6 1-10 1-9 0-18-2-27-6-1 1-2 2-3 4-1 2-1 5-1 7 0 74-79 152-156 191-59 29-81 78-99 117-10 22-19 41-32 53-1 1-1 2-1 3 10 11 19 21 27 29 1 0 2-1 3-2 19-18 29-41 40-66 17-36 35-74 80-97 65-32 134-91 164-159 9 45 15 117 15 224 0 24 11 56 22 90 10 29 20 59 20 77 0 2 1 5 2 7 8-5 16-11 22-17 5-5 10-10 15-17-4-19-11-41-19-63-10-30-20-60-20-77 0-161-14-260-42-299z m76-53c-10 11-20 21-29 30 2 3 5 6 10 8 60 20 75 62 91 106 14 37 28 75 67 98 6-13 13-26 19-38-25-16-35-43-47-74-16-46-37-102-111-130z m193-35c-21-32-43-64-65-87-13 6-25 14-35 22 1 3 3 5 5 7 19 20 40 51 60 81 21 31 43 64 65 86 1 1 2 1 3 2 8-14 14-28 18-40-16-20-34-46-51-71z" horiz-adv-x="1000" />

<glyph glyph-name="arrow-around" unicode="&#xe83e;" d="M984 334l-89 84c-8 8-17 11-27 12 17 10 25 29 19 48-55 166-210 278-386 278-206 0-377-154-403-353l-25 22c-17 16-43 15-58-2-16-17-15-44 2-59l91-83c7-7 17-10 26-11-17-9-25-29-19-48 55-166 211-278 386-278 206 0 375 153 403 351l22-22c8-7 19-11 29-11 11 0 22 4 30 13 16 16 15 43-1 59z m-483-307c-140 0-263 89-307 221-5 17-20 27-36 29 1 0 1 0 2 0l101 71c19 13 23 39 10 58-13 19-39 23-58 10l-32-22c22 157 157 279 320 279 140 0 263-89 307-221 5-16 20-27 36-28 0-1-1-1-1-1l-102-68c-20-12-25-38-12-57 13-20 38-25 58-12l34 23c-20-159-156-282-320-282z m0 465c-78 0-142-64-142-142 0-78 64-142 142-142 78 0 142 64 142 142 0 78-64 142-142 142z m0-201c-32 0-59 27-59 59 0 32 27 59 59 59s59-27 59-59c0-32-27-59-59-59z" horiz-adv-x="1000" />

<glyph glyph-name="arrow-barrier" unicode="&#xe83f;" d="M1000 454v84h-125v80l37-30c7-6 17-9 26-9 12 0 24 6 32 16 15 18 12 44-6 59l-104 83c-2 1-5 2-7 3-1 1-3 2-5 3-9 4-20 4-29 0-2-1-4-2-5-3-2-1-5-2-7-3l-104-83c-18-15-21-41-6-59 14-18 40-21 58-7l37 30v-80h-250v80l36-30c8-6 17-9 26-9 12 0 25 6 33 16 14 18 11 44-7 59l-104 83c-2 1-4 2-6 3-2 1-3 2-5 3-10 4-20 4-30 0-2-1-3-2-5-3-2-1-4-2-6-3l-104-83c-18-15-21-41-7-59 15-18 41-21 59-7l36 30v-80h-250v80l37-30c8-6 17-9 26-9 12 0 24 6 32 16 15 18 12 44-6 59l-104 83c-2 1-4 2-6 3-2 1-4 2-5 3-10 4-21 4-30 0-2-1-4-2-5-3-2-1-5-2-6-3l-105-84c-18-14-20-40-6-58 14-18 41-21 59-7l36 30v-80h-125v-84h125v-333h-125v-83h125v-42c0-23 19-42 42-42s41 19 41 42v42h250v-42c0-23 19-42 42-42 23 0 42 19 42 42v42h250v-42c0-23 18-42 41-42 23 0 42 19 42 42v42h125v83h-125v333h125z m-791-333v333h250v-333h-250z m583 0h-250v333h250v-333z" horiz-adv-x="1000" />

<glyph glyph-name="arrow-circle" unicode="&#xe840;" d="M546 802c-218 0-401-155-444-360l-31 31c-16 17-42 17-59 1s-16-43 0-59l81-83c10-241 209-434 453-434 251 0 454 203 454 452 0 249-203 452-454 452z m0-821c-197 0-358 154-369 348l90 61c19 13 23 39 10 58s-39 24-58 11l-32-23c39 162 185 283 359 283 204 0 371-166 371-369s-166-369-371-369z" horiz-adv-x="1000" />

<glyph glyph-name="arrow-cross" unicode="&#xe841;" d="M971 375l-80 104c-14 19-40 22-59 8-18-14-21-40-7-58l28-37h-313v292l39-30c18-14 44-11 58 8 14 18 11 44-8 58l-104 80c-15 11-35 11-50 0l-104-80c-19-14-22-40-8-58 8-11 20-17 33-17 9 0 18 3 25 9l36 27v-289h-310l28 37c14 18 11 44-7 58-19 14-45 11-59-8l-80-104c-11-15-11-35 0-50l80-104c14-19 40-22 59-8 10 8 16 20 16 33 0 9-3 18-9 25l-28 37h310v-289l-36 27c-18 14-44 11-58-8s-11-44 8-58l104-80c7-6 16-8 25-8s18 2 25 8l104 80c19 14 22 40 8 58-14 19-40 22-58 8l-39-30v292h313l-28-37c-14-18-11-44 7-58 19-14 45-11 59 8l80 104c5 7 8 16 8 25s-3 18-8 25z" horiz-adv-x="1000" />

<glyph glyph-name="arrow-fork" unicode="&#xe842;" d="M755 758l-104 83c-2 2-4 2-6 3-2 1-3 2-5 3-10 4-20 4-30 0-2-1-3-2-5-3-2-1-4-1-6-3l-104-83c-18-15-21-41-7-59 15-18 41-21 59-6l36 29v-268c0-49-39-93-83-93s-83 44-83 93v184l36-29c8-6 17-9 26-9 12 0 25 6 33 16 14 18 11 44-7 58l-104 84c-15 12-37 12-52 0l-104-84c-18-14-21-40-7-58 15-18 41-21 59-7l36 29v-184c0-79 55-149 125-170v-392c0-23 19-42 42-42 23 0 42 19 42 42v392c70 21 125 91 125 170v268l36-29c8-7 17-9 26-9 12 0 25 5 33 15 14 18 11 44-7 59z" horiz-adv-x="1000" />

<glyph glyph-name="arrow-from" unicode="&#xe843;" d="M958 215h-750v104c0 56 58 62 83 62h455l-29-36c-15-18-12-44 6-59 8-6 17-9 26-9 12 0 24 5 33 16l80 100c8 7 13 18 13 30s-5 23-13 30l-80 100c-15 18-41 21-59 7s-21-41-6-59l29-36h-455c-99 0-166-59-166-146v-104h-83c-23 0-42-19-42-42s19-42 42-42h916c23 0 42 19 42 42 0 23-19 42-42 42z" horiz-adv-x="1000" />

<glyph glyph-name="arrow-inside-45" unicode="&#xe844;" d="M948 808h-666c-23 0-42-18-42-41v-316l-218-217c-16-17-16-43 0-59 8-8 19-12 30-12s21 4 29 12l159 159v-216l-93-93c-16-16-16-42 0-59 8-8 19-12 30-12s21 4 29 12l34 34v-67c0-23 19-41 42-41h666c23 0 42 18 42 41v834c0 23-19 41-42 41z m-41-833h-584v109l253 252c6-16 21-28 39-28 23 0 42 19 42 42v83c0 23-19 42-42 42h-83c-23 0-42-19-42-42 0-17 11-32 27-38l-194-194v216l128 128c6-17 21-28 39-28 23 0 42 18 42 41v84c0 23-19 41-42 41h-83c-23 0-42-18-42-41 0-18 11-33 27-39l-69-68v190h584v-750z" horiz-adv-x="1000" />

<glyph glyph-name="arrow-inside-gap-45" unicode="&#xe845;" d="M738 749l-147-208c-5-7-8-15-8-24v-124l-36 29c-18 14-44 11-59-7-14-18-11-44 7-58l104-84c8-6 17-9 26-9s18 3 26 9l104 84c18 14 21 40 7 58-15 18-41 21-59 7l-36-29v111l139 196c13 19 9 45-10 58s-44 9-58-9z m-655-232h-83c-23 0-42-18-42-41s19-42 42-42h42v-458c0-23 18-42 41-42s42 19 42 42v500c0 23-19 41-42 41z m917 0h-125c-23 0-42-18-42-41v-500c0-23 19-42 42-42s42 19 42 42v458h83c23 0 42 19 42 42s-19 41-42 41z m-588-95l-37-29v111l140 196c13 19 8 45-10 58-19 14-45 9-58-10l-148-207c-5-7-7-15-7-24v-124l-37 29c-18 14-44 11-58-7-15-18-12-44 6-58l104-84c8-6 17-9 26-9s19 3 26 9l105 84c18 14 20 40 6 58-14 18-40 21-58 7z" horiz-adv-x="1000" />

<glyph glyph-name="arrow-inside-gap" unicode="&#xe846;" d="M412 133l-37-30v705c0 23-19 42-42 42s-41-19-41-42v-705l-37 30c-18 14-44 11-58-7-15-18-12-44 6-58l104-84c2-1 5-2 7-3 1-1 3-2 4-3 5-2 10-3 15-3 5 0 11 1 15 3 2 1 4 2 5 3 2 1 5 2 6 3l105 84c18 14 20 40 6 58-14 18-40 21-58 7z m291 0l-36-30v705c0 23-19 42-42 42s-42-19-42-42v-705l-36 30c-18 14-44 11-59-7-14-18-11-44 7-58l104-84c2-1 4-2 6-3 2-1 3-2 5-3 5-2 10-3 15-3 5 0 10 1 15 3 2 1 3 2 5 3 2 1 4 2 6 3l104 84c18 14 21 40 7 58-15 18-41 21-59 7z m-578 300h-125c-23 0-42-18-42-41s19-42 42-42h83v-458c0-23 19-42 42-42s42 19 42 42v500c0 23-19 41-42 41z m875 0h-167c-23 0-41-18-41-41v-500c0-23 18-42 41-42s42 19 42 42v458h125c23 0 42 19 42 42s-19 41-42 41z" horiz-adv-x="1000" />

<glyph glyph-name="arrow-inside" unicode="&#xe847;" d="M958 788h-750c-23 0-41-19-41-42v-208h-125c-23 0-42-19-42-42s19-42 42-42h125v-208h-125c-23 0-42-19-42-42s19-41 42-41h125v-209c0-23 18-42 41-42h750c23 0 42 19 42 42v792c0 23-19 42-42 42z m-41-792h-667v167h329l-29-37c-14-18-11-44 6-58 8-7 17-10 27-10 12 0 24 6 32 16l80 100c8 8 13 18 13 30s-5 23-13 31l-80 99c-14 18-41 21-59 7-17-14-20-41-6-59l29-36h-329v208h329l-29-36c-14-18-11-44 6-59 8-6 17-9 26-9 13 0 25 5 33 16l80 100c8 7 13 18 13 30s-5 23-13 30l-80 100c-14 18-41 21-59 7-18-15-20-41-6-59l29-36h-329v166h667v-708z" horiz-adv-x="1000" />

<glyph glyph-name="arrow-into" unicode="&#xe848;" d="M714 338c18 15 20 41 6 59-14 18-41 21-58 6l-37-29v18c0 87-67 146-167 146h-416c-23 0-42-19-42-42s19-42 42-42h416c19 0 84-4 84-62v-18l-37 29c-18 15-44 12-58-6-15-18-12-44 6-59l104-83c8-6 17-9 26-9s19 3 26 9l105 83z m244-92h-375-541c-23 0-42-19-42-42s19-41 42-41h916c23 0 42 18 42 41s-19 42-42 42z" horiz-adv-x="1000" />

<glyph glyph-name="arrow-join" unicode="&#xe849;" d="M981 375l-82 110c-13 18-39 22-58 8-18-14-22-40-8-58l32-43h-226c-15 76-67 125-140 125h-446c-23 0-42-19-42-42s19-42 42-42h446c53 0 61-57 62-83-1-26-9-83-62-83h-446c-23 0-42-19-42-42s19-42 42-42h446c73 0 125 49 140 125h226l-32-43c-14-18-10-44 8-58 8-6 16-8 25-8 13 0 25 6 33 17l82 109c11 15 11 35 0 50z" horiz-adv-x="1000" />

<glyph glyph-name="arrow-junction" unicode="&#xe84a;" d="M834 642c0 12-5 22-14 30l-79 100c-15 18-41 21-59 6-18-14-21-40-7-58l30-37h-163v125c0 23-19 42-42 42s-41-19-41-42v-125h-125c-23 0-42-18-42-41s19-42 42-42h125v-167h-164l29 37c14 18 11 44-7 58-18 15-44 12-58-6l-84-104c-12-15-12-37 0-52l84-104c8-11 20-16 32-16 9 0 19 3 26 9 18 14 21 41 7 59l-29 36h164v-458c0-23 18-42 41-42s42 19 42 42v458h125c23 0 42 19 42 42s-19 41-42 41h-125v167h163l-30-36c-14-18-11-45 7-59 8-6 17-9 26-9 12 0 24 5 32 16l80 99c9 8 14 19 14 31z" horiz-adv-x="1000" />

<glyph glyph-name="arrow-loop" unicode="&#xe84b;" d="M958 725h-125c-23 0-41-19-41-42s18-41 41-41h84v-584h-498l29 37c15 18 12 44-6 58-18 15-44 12-59-6l-83-104c-12-15-12-37 0-52l83-105c9-10 21-15 33-15 9 0 18 3 26 9 18 14 21 41 6 58l-29 37h539c23 0 42 19 42 42v666c0 23-19 42-42 42z m-750-667h-125v584h538l-29-37c-15-18-12-44 6-58 8-6 17-9 26-9 12 0 25 5 33 15l80 100c8 8 13 18 13 30s-5 23-13 31l-80 100c-15 18-41 21-59 6s-21-41-6-58l29-37h-579c-23 0-42-19-42-42v-666c0-23 19-42 42-42h166c23 0 42 19 42 42 0 23-19 41-42 41z" horiz-adv-x="1000" />

<glyph glyph-name="arrow-merge" unicode="&#xe84c;" d="M1000 350c0 12-5 23-13 30l-80 100c-15 18-41 21-59 7s-21-41-6-59l29-36h-252c-19 71-84 125-161 125h-22l-71 88c-14 18-40 21-58 7-18-15-21-41-7-59l29-36h-287c-23 0-42-19-42-42s19-42 42-42h287l-29-36c-14-18-11-44 7-59 7-6 16-9 26-9 12 0 24 6 32 16l71 88h22c46 0 83-37 83-83 0-46-37-83-83-83h-189l-71 88c-14 18-40 21-58 7-18-15-21-41-7-59l30-36h-121c-23 0-42-19-42-42s19-42 42-42h121l-30-36c-14-18-11-44 7-59 8-6 17-9 26-9 12 0 24 6 32 16l71 88h189c77 0 142 54 161 125h252l-29-36c-15-18-12-44 6-59 8-6 17-9 26-9 12 0 25 6 33 16l80 100c8 7 13 18 13 30z" horiz-adv-x="1000" />

<glyph glyph-name="arrow-mix" unicode="&#xe84d;" d="M987 151l-80 100c-14 18-40 21-58 7-18-15-21-41-7-59l29-36c-135 1-226 89-318 190 89 98 177 185 311 185h7l-29-37c-14-18-11-44 7-59 7-6 16-9 26-9 12 0 24 6 32 16l80 100c8 8 13 18 13 30s-5 23-13 30l-80 100c-14 18-40 21-58 7-18-15-21-41-7-59l29-36h-7c-166 0-271-100-367-207-99 106-205 205-369 207l29 36c15 18 12 45-6 59-18 14-45 11-59-7l-83-104c-13-15-13-37 0-52l83-104c8-10 20-16 33-16 9 0 18 3 26 10 18 14 21 40 6 58l-29 36c132-1 223-87 313-185-90-100-178-188-313-189l29 36c15 18 12 44-6 59-18 14-45 11-59-7l-83-104c-13-15-13-37 0-52l83-104c8-11 20-16 33-16 9 0 18 3 26 9 18 14 21 41 6 59l-29 36c167 1 272 103 369 211 100-108 208-210 374-211l-29-36c-14-18-11-45 7-59 7-6 16-9 26-9 12 0 24 5 32 16l80 100c8 7 13 18 13 30 0 12-5 22-13 30z" horiz-adv-x="1000" />

<glyph glyph-name="arrow-out-left" unicode="&#xe84e;" d="M948 392h-809l29 36c14 18 11 44-7 59-18 14-44 11-58-7l-84-104c-12-15-12-37 0-52l84-104c8-10 20-16 32-16 9 0 19 3 26 9 18 15 21 41 7 59l-29 36h809c23 0 42 19 42 42 0 23-19 42-42 42z" horiz-adv-x="1000" />

<glyph glyph-name="arrow-out-right" unicode="&#xe84f;" d="M52 392h809l-29 36c-14 18-11 44 7 59 18 14 44 11 58-7l84-104c12-15 12-37 0-52l-84-104c-8-10-20-16-32-16-9 0-18 3-26 9-18 15-21 41-7 59l29 36h-809c-23 0-42 19-42 42 0 23 19 42 42 42z" horiz-adv-x="1000" />

<glyph glyph-name="arrow-outside-45" unicode="&#xe850;" d="M958 808h-583c-23 0-42-18-42-41v-222l-250-250v13c0 23-18 42-41 42s-42-19-42-42v-125c0-23 19-41 42-41h125c23 0 41 18 41 41s-18 42-41 42h-36l202 202v-215l-125-125v13c0 23-18 42-41 42s-42-19-42-42v-125c0-23 19-42 42-42h125c23 0 41 19 41 42s-18 42-41 42h-36l77 77v-119-42c0-23 19-41 42-41h583c23 0 42 18 42 41v834c0 23-19 41-42 41z m-41-833h-500v202l238 239c16 16 16 42 0 58s-42 17-59 0l-179-179v215l113 114c16 16 16 43 0 59s-42 16-59 0l-54-55v97h500v-750z" horiz-adv-x="1000" />

<glyph glyph-name="arrow-outside-gap-45" unicode="&#xe851;" d="M583 621c23 0 42 19 42 42v83c0 23-19 42-42 42h-83c-23 0-42-19-42-42 0-17 11-32 26-38l-142-187c-6-7-9-16-9-25v-417c0-23 19-41 42-41s42 18 42 41v403l127 168c6-17 21-29 39-29z m209 0c23 0 41 19 41 42v83c0 23-18 42-41 42h-84c-23 0-41-19-41-42 0-17 10-32 25-38l-142-187c-5-7-8-16-8-25v-417c0-23 18-41 41-41s42 18 42 41v403l128 168c5-17 20-29 39-29z m-542-125h-208c-23 0-42-19-42-42s19-41 42-41h166v-459c0-23 19-42 42-42s42 19 42 42v500c0 23-19 42-42 42z m708 0h-250c-23 0-41-19-41-42v-500c0-23 18-42 41-42s42 19 42 42v459h208c23 0 42 18 42 41s-19 42-42 42z" horiz-adv-x="1000" />

<glyph glyph-name="arrow-outside-gap" unicode="&#xe852;" d="M359 839c-15 13-36 13-52 0l-104-83c-18-14-21-41-6-59 8-10 20-15 32-15 9 0 19 3 26 9l37 29v-702c0-23 18-42 41-42s42 19 42 42v702l37-29c18-14 44-11 58 6 14 18 12 45-6 59l-105 83z m403-142c14 18 11 45-7 59l-104 83c-15 13-37 13-52 0l-104-83c-18-14-21-41-7-59 9-10 21-15 33-15 9 0 18 3 26 9l36 29v-702c0-23 19-42 42-42 23 0 42 19 42 42v702l36-29c18-14 44-11 59 6z m-554-262h-166c-23 0-42-19-42-42s19-41 42-41h125v-459c0-23 18-42 41-42s42 19 42 42v500c0 23-19 42-42 42z m750 0h-208c-23 0-42-19-42-42v-500c0-23 19-42 42-42s42 19 42 42v459h166c23 0 42 18 42 41s-19 42-42 42z" horiz-adv-x="1000" />

<glyph glyph-name="arrow-outside" unicode="&#xe853;" d="M959 788h-709c-23 0-41-19-41-42v-208h-81l29 36c15 18 12 44-6 59-18 14-45 11-59-7l-83-104c-13-15-13-37 0-52l83-104c8-11 20-16 33-16 9 0 18 3 26 9 18 15 21 41 6 59l-29 36h81v-208h-81l29 36c15 18 12 45-6 59-18 14-45 11-59-7l-83-104c-13-15-13-37 0-52l83-104c8-10 20-16 33-16 9 0 18 3 26 10 18 14 21 40 6 58l-29 37h81v-209c0-23 18-42 41-42h709c23 0 41 19 41 42v792c0 23-18 42-41 42z m-42-792h-625v167h375c23 0 42 18 42 41s-19 42-42 42h-375v208h375c23 0 42 19 42 42s-19 42-42 42h-375v166h625v-708z" horiz-adv-x="1000" />

<glyph glyph-name="arrow-over" unicode="&#xe854;" d="M990 326l-83 104c-14 18-40 21-58 7-18-15-21-41-7-59l29-36h-148c-18 120-114 204-243 204s-225-84-243-204h-195c-23 0-42-19-42-42s19-42 42-42h234c23 0 42 19 42 42 0 96 67 163 162 163s163-67 163-163c0-23 19-42 42-42h186l-29-36c-14-18-11-44 7-59 7-6 16-9 26-9 12 0 24 6 32 16l83 104c13 15 13 37 0 52z m-510 97c-57 0-103-47-103-103s46-103 103-103c57 0 103 46 103 103 0 56-46 103-103 103z m0-123c-11 0-19 9-19 20 0 10 8 19 19 19s20-8 20-19c0-11-9-20-20-20z" horiz-adv-x="1000" />

<glyph glyph-name="arrow-shuffle" unicode="&#xe855;" d="M547 389c12 0 23 4 31 13 74 82 189 135 293 136l-29-37c-15-18-12-44 6-58 8-7 17-10 26-10 13 0 25 6 33 16l80 101c1 1 2 2 3 2l0 1c0 1 1 1 1 1 5 7 9 16 9 26 0 12-5 22-14 30l-79 99c-14 18-41 21-59 7-18-14-20-41-6-59l29-36c-127-1-266-65-354-163-16-17-15-43 3-58 7-8 17-11 27-11z m-190-92c-77-65-212-113-315-113-23 0-41-19-41-42s18-42 41-42c122 0 277 56 369 133 17 15 20 41 5 59-15 17-41 20-59 5z m629-145l-79 99c-14 18-41 21-59 7-18-15-21-41-6-59l29-36c-149 1-264 106-386 218-128 118-261 240-444 240-23 0-41-19-41-42s18-41 41-41c150 0 266-106 388-218 128-118 261-240 442-240l-29-37c-15-18-12-45 6-59 8-6 17-9 26-9 13 0 25 5 33 16l80 100c1 1 2 2 3 3l0 1c1 0 1 0 1 1 5 7 9 15 9 25 0 12-5 23-14 31z" horiz-adv-x="1000" />

<glyph glyph-name="arrow-squiggly" unicode="&#xe856;" d="M1002 122c0 12-6 23-14 31l-80 100c-14 18-40 20-58 6-18-14-21-41-7-58l29-37h-1c-53 0-63 11-65 155-1 75-2 167-26 273-41 175-171 251-281 248-95-3-168-61-183-145-25-144 77-247 180-328 85-67 132-159 127-247-4-59-31-108-75-135-42-26-105-19-149 17-56 45-70 122-38 212 40 117 14 230-66 287-65 46-147 42-214-11-55-44-84-112-83-196 4-170 124-366 206-426 7-5 16-8 25-8 12 0 25 6 33 17 14 19 10 45-9 58-65 49-169 225-171 361-1 58 16 101 51 129 37 29 79 33 113 8 38-26 70-93 36-191-43-124-19-237 65-305 72-58 172-68 245-23 67 41 108 114 114 201 7 115-52 234-158 317-102 80-166 153-150 249 10 54 62 74 104 75 71 3 165-45 197-183 22-97 23-185 24-255 2-122 3-237 148-237h1l-29-37c-14-18-11-44 7-58 7-6 17-9 26-9 12 0 24 5 32 15l80 100c8 8 14 18 14 30z" horiz-adv-x="1000" />

<glyph glyph-name="arrow-through" unicode="&#xe857;" d="M1000 329c0 12-5 23-13 30l-80 100c-15 18-41 21-59 7-18-15-21-41-6-59l29-36h-149c-11 142-130 255-275 255s-264-113-275-255h-130c-23 0-42-19-42-42s19-41 42-41h136c29-123 138-214 269-214 131 0 240 91 269 214h155l-29-37c-15-18-12-44 6-58 8-7 17-10 26-10 12 0 25 6 33 16l80 100c8 8 13 18 13 30z m-553-172c-84 0-155 55-181 131h109c23 0 42 18 42 41s-19 42-42 42h-118c10 96 91 172 190 172 106 0 193-87 193-193s-87-193-193-193z" horiz-adv-x="1000" />

<glyph glyph-name="arrow-to" unicode="&#xe858;" d="M967 409c-23 0-41-18-41-41v-29c-278 238-756 176-920 40-18-15-20-41-5-59s40-20 58-5c139 114 558 167 802-31h-19c-23 0-41-18-41-41s18-42 41-42h125c23 0 42 19 42 42v125c0 23-19 41-42 41z" horiz-adv-x="1000" />

<glyph glyph-name="double-circle" unicode="&#xe859;" d="M868 667c-85 84-198 131-319 131-217 0-399-154-442-358l-36 36c-17 16-43 16-59-1s-16-42 1-59l86-84c5-113 50-219 131-299 85-84 199-131 319-131 249 0 451 201 451 448 0 120-47 232-132 317z m-319-682c-98 0-191 38-260 107-64 64-101 147-107 236l96 61c20 12 25 38 13 57-12 20-38 25-57 13l-43-27c38 162 184 282 358 282 98 0 191-37 260-106 69-69 108-161 108-258 0-201-165-365-368-365z m321 487c-17 16-43 15-59-1l-33-35c-35 90-123 154-226 154-64 0-125-25-170-70-46-46-71-106-71-170 0-132 108-240 242-240 64 0 125 25 170 70 41 41 65 94 69 151l79 82c16 16 15 43-1 59z m-317-296l0 0c-88 0-159 79-159 165 0 42 17 90 46 120 30 29 70 46 112 46 50 0 95-25 124-62l-12 6c-20 12-45 6-57-14-12-20-5-45 14-57l88-53c-4-35-19-71-44-97-30-29-70-54-112-54z" horiz-adv-x="1000" />

<glyph glyph-name="full-view-2" unicode="&#xe85a;" d="M839 850h-678c-89 0-161-72-161-161v-675c0-89 74-164 161-164h678c87 0 161 75 161 164v675c0 89-72 161-161 161z m-756-161c0 43 35 78 78 78h678c43 0 78-35 78-78v-89h-834v89h0z m756-756h-678c-42 0-78 37-78 81v503h834v-503c0-44-36-81-78-81z" horiz-adv-x="1000" />

<glyph glyph-name="full-view" unicode="&#xe85b;" d="M178-108h-32c-3 0-6 0-8 0-12 1-22-8-23-19s8-22 19-23c4 0 8 0 12 0h32c11 0 20 9 20 21 0 11-9 21-20 21z m249 0h-42c-11 0-20-10-20-21s9-21 20-21h42c12 0 21 9 21 21s-9 21-21 21z m249 0h-41c-12 0-21-10-21-21s9-21 21-21h41c12 0 21 9 21 21s-9 21-21 21z m-622 54c-5 11-18 14-28 9-10-6-14-18-8-28 7-15 17-27 29-39 4-3 9-5 14-5 6 0 11 2 16 7 7 8 7 21-2 29-8 8-15 17-21 27z m498-54h-42c-11 0-21-10-21-21s10-21 21-21h42c11 0 21 9 21 21s-10 21-21 21z m327 913c11-2 22-7 31-13 4-2 8-3 12-3 7 0 13 3 17 9 6 10 4 23-6 29-14 9-29 15-44 19-12 3-23-4-26-15s5-23 16-26z m-120 3h42c11 0 21 10 21 21s-10 21-21 21h-42c-11 0-21-9-21-21s10-21 21-21z m-717-791v42c0 11-10 21-21 21s-21-10-21-21v-42c0-11 9-21 21-21s21 10 21 21z m-21 104c11 0 21 10 21 21v42c0 11-10 20-21 20s-21-9-21-20v-42c0-12 9-21 21-21z m614 687h41c12 0 21 10 21 21s-9 21-21 21h-41c-12 0-21-9-21-21s9-21 21-21z m-333-916h-41c-12 0-21-10-21-21s9-21 21-21h41c12 0 21 9 21 21s-9 21-21 21z m677 376c-11 0-21-9-21-21v-41c0-12 10-21 21-21s21 9 21 21v41c0 12-9 21-21 21z m0-250c-11 0-21-11-21-22 0-12-1-23-5-34-4-11 2-23 13-27 2-1 4-1 6-1 9 0 17 6 20 14 5 15 8 31 8 48v2c0 11-9 20-21 20z m0 125c-11 0-21-9-21-20v-42c0-12 10-21 21-21s21 9 21 21v42c0 11-9 20-21 20z m0 499c-11 0-21-9-21-21v-41c0-12 10-21 21-21s21 9 21 21v41c0 12-9 21-21 21z m0-249c-11 0-21-9-21-21v-42c0-11 10-20 21-20s21 9 21 20v42c0 12-9 21-21 21z m0 125c-11 0-21-10-21-21v-42c0-11 10-21 21-21s21 10 21 21v42c0 11-9 21-21 21z m-178-626h-41c-12 0-21-10-21-21s9-21 21-21h41c12 0 21 9 21 21s-9 21-21 21z m157 813c0-12 10-21 21-21 12 0 21 9 21 21 0 16-3 32-8 47-4 11-16 17-27 13-10-4-16-16-12-26 3-11 5-23 5-34z m-47-797c-10-6-21-11-32-13-11-3-18-14-15-26 2-9 11-16 20-16 2 0 3 1 5 1 16 4 31 10 44 19 10 6 13 19 6 29-6 10-19 12-28 6z m-286 796c0 47-22 88-56 114 2 4 3 7 3 11 0 12-9 21-21 21h-41c-3 0-6-1-9-2-7 1-14 2-22 2h-52-42-83-42-83-31c-4 0-8 0-12 0-2-1-3-1-4-2-31-3-58-16-80-35-1-1-2-1-3-2s-2-2-3-2c-1-2-3-4-5-6-4-5-8-9-12-15-1-2-3-5-5-7-1-3-3-5-5-8 0-1 0-2-1-3-10-20-16-42-16-66v-21-42-83-42-83-42-20c0-16 3-32 8-47-5-3-8-9-8-16v-41c0-12 9-21 21-21s21 9 21 21v2c26-27 63-44 104-44h333c81 0 146 65 146 146v333h0z m250-562c0 23-19 41-42 41s-41-18-41-41v-27l-138 139c-16 17-43 17-59 1s-17-43 0-59l136-138h-23c-23 0-41-18-41-41s18-42 41-42h125c23 0 42 19 42 42v125z" horiz-adv-x="1000" />

<glyph glyph-name="maximize" unicode="&#xe85c;" d="M833 725h-125c-23 0-41-19-41-42s18-41 41-41h23l-234-234-236 234h31c23 0 41 18 41 41s-18 42-41 42h-125c-23 0-42-19-42-42v-125c0-23 19-41 42-41s41 18 41 41v19l230-227-230-229v21c0 23-18 41-41 41s-42-18-42-41v-125c0-23 19-42 42-42h125c23 0 41 19 41 42s-18 41-41 41h-28l233 233 235-233h-24c-23 0-41-18-41-41s18-42 41-42h125c6 0 11 1 16 3 6 2 10 5 14 9 0 0 0 0 0 0 1 1 1 2 2 3 3 3 5 7 7 11 2 4 2 8 2 12 1 2 1 3 1 4v125c0 23-19 41-42 41s-41-18-41-41v-26l-236 234 236 234v-26c0-23 18-41 41-41s42 18 42 41v125c0 23-19 42-42 42z m6 125h-678c-89 0-161-72-161-161v-675c0-89 74-164 161-164h678c87 0 161 75 161 164v675c0 89-72 161-161 161z m78-836c0-44-36-81-78-81h-678c-42 0-78 37-78 81v675c0 43 35 78 78 78h678c43 0 78-35 78-78v-675l0 0z" horiz-adv-x="1000" />

<glyph glyph-name="minimize" unicode="&#xe85d;" d="M723 186c16 6 27 21 27 39 0 23-19 42-42 42h-83l0 0c-5 0-11-1-16-4s-9-5-13-8c0-1 0-1 0-1-1 0-1 0-1-1-3-3-6-7-8-12-2-5-3-10-3-15 0-1 0-1 0-1v-83c0-23 18-42 41-42 18 0 33 11 39 27l63-63c8-8 19-12 30-12s21 4 29 12c16 17 16 43 0 59l-63 63z m-362 81h-80c-23 0-42-19-42-42 0-20 15-36 34-40l-62-62c-16-16-17-42 0-59 8-8 19-12 29-12 11 0 22 4 30 12l64 65c3-21 20-37 41-37 23 0 42 19 42 42v79c0 23-33 54-56 54z m366 369l-63-63c-6 16-21 27-39 27-23 0-42-19-42-42v-83c0 0 1 0 1-1 0-5 1-10 3-15 2-5 4-9 8-12 0-1 0-1 1-1 0 0 0 0 0 0 3-4 8-7 13-9 5-3 11-4 16-4h83c23 0 42 19 42 42 0 18-11 33-27 39l63 63c16 16 16 42 0 59-16 16-43 16-59 0z m-352-28c-21 0-38-16-41-37l-64 65c-17 16-43 16-59 0-17-17-16-43 0-59l62-62c-19-4-34-20-34-40 0-23 19-42 42-42h80c23 0 56 31 56 54v80c0 23-19 41-42 41z m464 242h-678c-89 0-161-72-161-161v-675c0-89 74-164 161-164h678c87 0 161 75 161 164v675c0 89-72 161-161 161z m78-836c0-44-36-81-78-81h-678c-42 0-78 37-78 81v675c0 43 35 78 78 78h678c43 0 78-35 78-78v-675z" horiz-adv-x="1000" />

<glyph glyph-name="resize" unicode="&#xe85e;" d="M683 555c-5 2-11 3-16 3h-125c-23 0-42-18-42-41s19-42 42-42h24l-191-191v24c0 23-19 42-42 42s-41-19-41-42v-125c0-5 1-10 3-16 4-10 12-18 23-22 5-2 10-3 15-3h125c23 0 42 18 42 41s-19 42-42 42h-24l191 191v-24c0-23 19-42 42-42s41 19 41 42v125c0 5-1 11-3 16-4 10-12 18-22 22z m156 295h-678c-89 0-161-72-161-161v-675c0-89 74-164 161-164h678c87 0 161 75 161 164v675c0 89-72 161-161 161z m78-161v-47h-125v125h47c43 0 78-35 78-78z m-756-756c-42 0-78 37-78 81v44h125v-125h-47z m678 0h-547v167c0 23-19 42-42 42h-167v547c0 43 35 78 78 78h547v-167c0-23 19-42 42-42h167v-544c0-44-36-81-78-81z" horiz-adv-x="1000" />

<glyph glyph-name="three-arrow-fork" unicode="&#xe85f;" d="M839 570l-105 83c-15 13-36 13-52 0l-104-83c-18-14-21-41-6-58 14-18 40-21 58-7l37 29v-248c0-45-37-82-82-82h-43v539l36-30c8-6 17-9 26-9 12 0 25 6 33 16 14 18 11 44-7 58l-104 84c-15 12-37 12-52 0l-104-84c-18-14-21-40-7-58 15-18 41-21 59-7l36 30v-539h-43c-45 0-82 37-82 82v123l37-29c8-6 17-9 26-9 12 0 24 5 32 16 15 18 12 44-6 58l-104 83c-15 13-37 13-52 0l-104-83c-18-14-21-40-7-58 14-18 41-21 59-7l36 29v-123c0-91 74-165 165-165h43v-250c0-23 19-42 42-42s42 19 42 42v250h43c91 0 165 74 165 165v248l36-29c8-6 17-9 26-9 13 0 25 5 33 16 15 17 12 44-6 58z" horiz-adv-x="1000" />

<glyph glyph-name="view-height" unicode="&#xe860;" d="M578 547c8-6 17-9 26-9 12 0 25 5 33 15 14 18 11 44-7 59l-104 83c-15 12-37 12-52 0l-104-83c-18-15-21-41-7-59 15-18 41-21 59-6l36 29v-452l-36 29c-18 15-44 12-59-6-14-18-11-44 7-59l104-83c8-6 17-9 26-9s18 3 26 9l104 83c18 15 21 41 7 59-15 18-41 21-59 6l-36-29v452l36-29z m-203 220h250c23 0 42 18 42 41s-19 42-42 42h-250c-23 0-42-19-42-42s19-41 42-41z m250-834h-250c-23 0-42-18-42-41s19-42 42-42h250c23 0 42 19 42 42s-19 41-42 41z" horiz-adv-x="1000" />

<glyph glyph-name="view-width" unicode="&#xe861;" d="M862 380l-80 100c-15 18-41 21-59 7s-21-41-6-59l29-36h-493l29 36c14 18 11 44-7 59-18 14-44 11-58-7l-84-104c-12-15-12-37 0-52l84-104c8-10 20-16 32-16 9 0 19 3 26 9 18 15 21 41 7 59l-29 36h493l-29-36c-15-18-12-44 6-59 8-6 17-9 26-9 12 0 25 6 33 16l80 100c8 7 13 18 13 30 0 12-5 23-13 30z m96 137c-23 0-41-19-41-42v-250c0-23 18-42 41-42s42 19 42 42v250c0 23-19 42-42 42z m-916 0c-23 0-42-19-42-42v-250c0-23 19-42 42-42s41 19 41 42v250c0 23-18 42-41 42z" horiz-adv-x="1000" />

<glyph glyph-name="arrow-back-2" unicode="&#xe862;" d="M618 848c-16 6-35 0-46-13l-375-459c-13-15-13-37 0-52l375-459c8-10 20-15 32-15 5 0 10 1 14 2 17 6 28 22 28 40v916c0 18-11 34-28 40z m-55-840l-280 342 280 342v-684z m208 842c-23 0-42-19-42-42v-916c0-23 19-42 42-42s42 19 42 42v916c0 23-19 42-42 42z" horiz-adv-x="1000" />

<glyph glyph-name="arrow-back-3" unicode="&#xe863;" d="M857-150h-238c-10 0-21 4-28 11l-476 438c-8 8-13 19-13 30-1 12 4 22 12 31l475 478c8 8 19 12 30 12h238c17 0 32-10 38-26s3-33-9-45l-445-448 444-409c13-11 17-30 11-46-6-16-22-26-39-26z m-222 83h115l-397 366c-8 8-13 19-14 30 0 12 5 22 13 31l405 407h-121l-433-436 432-398z" horiz-adv-x="1000" />

<glyph glyph-name="arrow-back" unicode="&#xe864;" d="M287 350l239 438c11 21 3 46-17 57-20 11-45 3-56-17l-250-458c-7-12-7-28 0-40l250-458c7-14 22-22 36-22 7 0 14 2 20 5 20 11 28 36 17 57l-239 438z m474 42h-375c-23 0-42-19-42-42 0-23 19-42 42-42h375c23 0 42 19 42 42 0 23-19 42-42 42z" horiz-adv-x="1000" />

<glyph glyph-name="arrow-down-2" unicode="&#xe865;" d="M995 412c11-21 4-46-17-57l-458-250c-6-3-13-5-20-5s-14 2-20 5l-458 250c-20 11-28 37-17 57s36 27 57 16l438-239 438 239c21 11 46 4 57-16z m-973 110l458-250c6-4 13-5 20-5s14 1 20 5l458 250c21 11 28 36 17 56-11 21-36 28-57 17l-438-239-438 239c-21 11-46 3-57-17s-3-45 17-56z" horiz-adv-x="1000" />

<glyph glyph-name="arrow-down-3" unicode="&#xe866;" d="M958 496h-917c-17 0-33-11-39-28-6-16-1-35 13-46l458-375c8-6 17-9 27-9s18 3 26 9l458 375c14 11 19 30 13 46s-21 28-39 28z m-458-363l-342 280h683l-341-280z m-458 446h917c23 0 42 19 42 42s-19 42-42 42h-917c-23 0-41-19-41-42s18-42 41-42z" horiz-adv-x="1000" />

<glyph glyph-name="arrow-down-in-circle" unicode="&#xe867;" d="M828 433c-11 20-37 27-57 16l-271-155-271 155c-20 11-45 4-57-16-11-20-4-45 16-57l291-166c7-4 14-6 21-6 7 0 14 2 21 6l291 166c20 12 27 37 16 57z m-328 417c-276 0-500-224-500-500 0-276 224-500 500-500s500 224 500 500c0 276-224 500-500 500z m0-917c-230 0-417 187-417 417 0 230 187 417 417 417 230 0 417-187 417-417 0-230-187-417-417-417z" horiz-adv-x="1000" />

<glyph glyph-name="arrow-down" unicode="&#xe868;" d="M500 183c-7 0-14 2-20 6l-458 250c-20 11-28 36-17 56s37 28 57 17l438-239 438 239c21 11 46 3 57-17 11-20 3-45-17-56l-458-250c-6-4-13-6-20-6z" horiz-adv-x="1000" />

<glyph glyph-name="arrow-forward-2" unicode="&#xe869;" d="M886 360l-475 478c-8 8-19 12-30 12h-238c-17 0-32-10-38-26-7-15-3-33 9-45l445-448-444-409c-13-11-17-30-11-46 7-16 22-26 39-26h238c11 0 21 4 28 11l476 438c9 8 13 19 14 30 0 12-5 22-13 31z m-521-427h-115l397 366c9 8 13 19 14 30 0 12-5 22-13 31l-405 407h121l433-436-432-398z" horiz-adv-x="1000" />

<glyph glyph-name="arrow-forward" unicode="&#xe86a;" d="M817 330l-250-458c-7-14-21-22-36-22-7 0-14 2-20 5-20 11-28 36-17 57l239 438-239 438c-11 21-3 46 17 57 20 11 45 3 56-17l250-458c7-12 7-27 0-40z m-181 20c0 23-19 42-42 42h-375c-23 0-41-19-41-42s18-42 41-42h375c23 0 42 19 42 42z" horiz-adv-x="1000" />

<glyph glyph-name="arrow-left-2" unicode="&#xe86b;" d="M578-88c11-21 4-46-16-57-7-3-13-5-20-5-15 0-29 8-37 22l-250 458c-7 13-7 28 0 40l250 458c11 21 36 28 57 17 20-11 27-36 16-56l-239-439 239-438z m-72 438l239 438c11 21 4 46-17 57-20 11-45 3-56-17l-250-458c-7-12-7-28 0-40l250-458c7-14 22-22 36-22 7 0 14 2 20 5 21 11 28 36 17 57l-239 438z" horiz-adv-x="1000" />

<glyph glyph-name="arrow-left-in-circle" unicode="&#xe86c;" d="M583 678c-20 11-45 4-57-16l-166-291c-8-13-8-29 0-42l166-291c8-14 22-21 37-21 7 0 14 1 20 5 20 12 27 37 16 57l-155 271 155 271c11 20 4 45-16 57z m-83 172c-276 0-500-224-500-500 0-276 224-500 500-500s500 224 500 500c0 276-224 500-500 500z m0-917c-230 0-417 187-417 417 0 230 187 417 417 417 230 0 417-187 417-417 0-230-187-417-417-417z" horiz-adv-x="1000" />

<glyph glyph-name="arrow-left" unicode="&#xe86d;" d="M625-150c-15 0-29 8-36 22l-250 458c-7 12-7 28 0 40l250 458c11 20 36 28 56 17s28-36 17-57l-239-438 239-438c11-21 3-46-17-57-6-3-13-5-20-5z" horiz-adv-x="1000" />

<glyph glyph-name="arrow-next" unicode="&#xe86e;" d="M803 376l-375 459c-11 13-30 19-46 13-17-6-28-22-28-40v-916c0-18 11-34 28-40 4-1 9-2 14-2 12 0 24 5 32 15l375 459c13 15 13 37 0 52z m-365-368v684l279-342-279-342z m-167 800v-916c0-23-19-42-42-42s-41 19-41 42v916c0 23 18 42 41 42s42-19 42-42z" horiz-adv-x="1000" />

<glyph glyph-name="arrow-refresh-2" unicode="&#xe86f;" d="M488 474c-33-3-63-19-84-45-22-25-32-58-28-91 6-64 59-113 124-113 4 0 8 0 12 1 33 3 63 19 85 45 21 25 31 58 27 91-6 69-67 119-136 112z m44-150c-7-9-17-14-28-15l-4-1c-22 0-39 17-41 38-1 11 2 22 9 30 7 9 17 14 28 15l4 1c22 0 39-17 42-38 1-11-3-22-10-30z m443 55l-64 34c-33 216-227 374-451 352-204-20-359-184-375-382l-21 11c-20 11-45 4-56-17-11-20-3-45 17-56l64-34c31-203 203-354 411-354 13 0 27 1 40 2 204 20 359 184 375 381l21-11c6-3 13-5 19-5 15 0 30 8 37 22 11 21 3 46-17 57z m-443-361c-176-17-329 103-359 271l56 26c21 10 30 35 20 56-10 20-34 29-55 20l-26-12c14 157 138 287 300 303 11 1 22 1 33 1 162 0 298-115 327-272l-57-26c-20-10-30-34-20-55 10-21 35-30 55-21l26 12c-13-157-137-287-300-303z" horiz-adv-x="1000" />

<glyph glyph-name="arrow-refresh" unicode="&#xe870;" d="M641 350c0 78-64 142-142 142-78 0-141-64-141-142 0-78 63-142 141-142 78 0 142 64 142 142z m-203 0c0 34 28 61 61 61 34 0 61-27 61-61s-27-61-61-61c-33 0-61 28-61 61z m543-27l-98 61c-1 1-2 1-3 1-3 2-7 3-11 4-2 0-4 1-6 1 0 0-1 1-2 1-4 0-8-2-12-3-1 0-2 0-3 0l-108-43c-20-8-31-32-22-53 8-20 32-31 52-22l47 18c-29-151-159-265-316-265-22 0-40-18-40-41s18-40 40-40c199 0 364 146 397 339l42-27c7-4 14-6 22-6 13 0 26 6 34 19 12 19 6 44-13 56z m-749 105l-49-18c28 152 159 267 316 267 23 0 41 19 41 41s-18 40-41 40c-198 0-362-145-396-336l-40 26c-19 13-44 8-56-11-13-18-8-44 11-56l97-65c1 0 2-1 4-2 1 0 3-1 4-2 4-1 9-2 14-2 5 0 9 1 14 2l109 40c21 8 32 31 24 52s-31 32-52 24z" horiz-adv-x="1000" />

<glyph glyph-name="arrow-right-2" unicode="&#xe871;" d="M745 330l-250-458c-8-14-22-22-37-22-6 0-13 2-20 5-20 11-27 36-16 57l239 438-239 438c-11 21-4 46 16 57 21 11 46 3 57-17l250-458c7-12 7-27 0-40z m-167 40l-250 458c-11 21-36 28-56 17-20-11-28-36-17-57l239-438-239-438c-11-21-3-46 17-57 6-3 13-5 20-5 14 0 29 8 36 22l250 458c7 13 7 28 0 40z" horiz-adv-x="1000" />

<glyph glyph-name="arrow-right-in-circle" unicode="&#xe872;" d="M474 662c-12 20-37 27-57 16-20-11-27-37-16-57l155-271-155-271c-11-20-4-45 16-57 6-3 14-5 21-5 14 0 28 7 36 21l166 291c8 13 8 29 0 42l-166 291z m26 188c-276 0-500-224-500-500 0-276 224-500 500-500s500 224 500 500c0 276-224 500-500 500z m0-917c-230 0-417 187-417 417 0 230 187 417 417 417 230 0 417-187 417-417 0-230-187-417-417-417z" horiz-adv-x="1000" />

<glyph glyph-name="arrow-right" unicode="&#xe873;" d="M375-150c-7 0-14 2-20 5-20 11-28 36-16 57l239 438-239 438c-12 21-4 46 16 57 20 11 46 3 57-17l250-458c6-12 6-28 0-40l-250-458c-8-14-22-22-37-22z" horiz-adv-x="1000" />

<glyph glyph-name="arrow-turn-left" unicode="&#xe874;" d="M204 574l333 267c18 14 44 11 59-7 14-18 11-44-7-58l-293-234 293-235c18-14 21-40 7-58-9-10-21-16-33-16-9 0-18 3-26 9l-333 267c-10 8-16 20-16 33 0 12 6 24 16 32z m325-32c0 23 18 41 41 41 134 0 242-108 242-241v-450c0-23-19-42-42-42s-41 19-41 42v450c0 87-71 158-159 158-23 0-41 19-41 42z" horiz-adv-x="1000" />

<glyph glyph-name="arrow-turn-right" unicode="&#xe875;" d="M796 574l-333 267c-18 14-44 11-58-7-15-18-12-44 6-58l293-234-293-235c-18-14-21-40-6-58 8-10 20-16 32-16 9 0 18 3 26 9l333 267c10 8 16 20 16 33 0 12-6 24-16 32z m-325-32c0 23-18 41-41 41-134 0-242-108-242-241v-450c0-23 19-42 42-42s41 19 41 42v450c0 87 71 158 159 158 23 0 41 19 41 42z" horiz-adv-x="1000" />

<glyph glyph-name="arrow-up-2" unicode="&#xe876;" d="M5 288c-11 21-3 46 17 57l458 250c13 7 28 7 40 0l458-250c21-11 28-36 17-57-8-13-22-21-37-21-6 0-13 1-20 5l-438 239-438-239c-20-11-46-4-57 16z m973-110l-458 250c-12 7-27 7-40 0l-458-250c-20-11-28-36-17-56 11-20 37-28 57-17l438 239 438-239c7-3 14-5 20-5 15 0 29 8 37 22 11 20 4 45-17 56z" horiz-adv-x="1000" />

<glyph glyph-name="arrow-up-3" unicode="&#xe877;" d="M41 204h917c0 0 1 0 1 0 23 0 41 19 41 42 0 15-8 29-20 36l-454 371c-15 13-37 13-53 0l-458-375c-14-11-19-30-13-46 6-17 22-28 39-28z m459 363l341-279h-683l342 279z m459-446h-917c-23 0-41-19-41-42s18-41 41-41h917c23 0 42 18 42 41s-19 42-42 42z" horiz-adv-x="1000" />

<glyph glyph-name="arrow-up-in-circle" unicode="&#xe878;" d="M812 324l-291 166c-13 8-29 8-42 0l-291-166c-20-12-27-37-16-57 12-20 37-27 57-16l271 155 271-155c7-3 14-5 21-5 14 0 28 7 36 21 11 20 4 45-16 57z m-312 526c-276 0-500-224-500-500 0-276 224-500 500-500s500 224 500 500c0 276-224 500-500 500z m0-917c-230 0-417 187-417 417 0 230 187 417 417 417 230 0 417-187 417-417 0-230-187-417-417-417z" horiz-adv-x="1000" />

<glyph glyph-name="arrow-up" unicode="&#xe879;" d="M958 183c-6 0-13 2-20 6l-438 239-438-239c-20-12-46-4-57 16-11 20-3 46 17 57l458 250c13 6 28 6 40 0l458-250c21-11 28-37 17-57-8-14-22-22-37-22z" horiz-adv-x="1000" />

<glyph glyph-name="arrow-x-left" unicode="&#xe87a;" d="M991 373l-310 459c-7 11-20 18-34 18h-603c-23 0-42-19-42-42v-916c0-23 19-42 42-42h603c14 0 27 7 34 18l310 459c9 14 9 32 0 46z m-366-440h-539v834h539l281-417-281-417z m-43 633c-16 16-42 16-58 0l-135-135-135 135c-16 16-42 16-59 0-16-16-16-43 0-59l135-135-135-136c-16-16-16-42 1-59 8-8 18-12 29-12 11 0 21 4 29 12l135 136 135-136c8-8 18-12 29-12 11 0 21 4 29 12 17 17 17 43 1 59l-135 136 135 135c16 16 16 43-1 59z" horiz-adv-x="1000" />

<glyph glyph-name="arrow-x-right" unicode="&#xe87b;" d="M937 850h-528c-13 0-26-6-33-17l-346-458c-11-15-11-35 0-50l346-459c7-10 20-16 33-16h528c23 0 42 19 42 42v916c0 23-19 42-42 42z m-42-917h-465l-315 417 315 417h465v-834z m-464 574l135-135-135-136c-16-16-16-42 0-59 9-8 19-12 30-12 11 0 21 4 29 12l135 136 134-136c9-8 19-12 30-12 11 0 21 4 29 12 17 17 17 43 1 59l-135 136 135 135c16 16 16 43-1 59-16 16-42 16-59 0l-134-135-135 135c-16 16-42 16-59 0-16-16-16-43 0-59z" horiz-adv-x="1000" />

<glyph glyph-name="bottom-to-top" unicode="&#xe87c;" d="M750-67h-208v785l172-144c18-15 44-12 59 5 15 18 12 44-5 59l-238 199c-1 1-2 2-3 3l-1 0c0 1-1 1-1 1-4 3-7 5-11 6-3 1-6 2-9 2-2 0-3 1-5 1 0 0 0 0 0 0-10 0-20-3-28-10l-237-202c-17-15-19-42-4-59 8-10 20-15 31-15 10 0 20 4 27 10l169 145v-786h-208c-23 0-42-18-42-41s19-42 42-42h500c23 0 42 19 42 42 0 23-19 41-42 41z" horiz-adv-x="1000" />

<glyph glyph-name="down" unicode="&#xe87d;" d="M770 121c-15 18-41 20-59 5l-171-147v829c0 23-19 42-42 42-23 0-41-19-41-42v-823l-169 141c-17 15-44 13-58-5-15-18-13-44 5-59l229-192c7-12 20-20 34-20 1 0 2 0 2 0 1 0 2 0 2 0 10 0 20 3 28 10l236 202c17 15 19 42 4 59z" horiz-adv-x="1000" />

<glyph glyph-name="down-2" unicode="&#xe87e;" d="M500-150c-12 0-23 5-31 13l-312 342c-7 7-11 17-11 28v575c0 23 19 42 42 42h625c23 0 41-19 41-42v-575c0-11-4-21-11-28l-312-342c-8-8-19-13-31-13z m-271 399l271-296 271 296v518h-542v-518z" horiz-adv-x="1000" />

<glyph glyph-name="down-3" unicode="&#xe87f;" d="M702 204c-8 13-21 21-36 21h-123v583c0 23-18 42-41 42s-42-19-42-42v-583h-126c-15 0-28-8-36-21-7-13-7-28 0-41l166-292c7-13 21-21 36-21 15 0 29 8 36 21l166 292c7 13 7 29 0 41z m-202-228l-94 166h188l-94-166z" horiz-adv-x="1000" />

<glyph glyph-name="download" unicode="&#xe880;" d="M875 142c-23 0-42-19-42-42v-167h-666v167c0 23-19 42-42 42s-42-19-42-42v-208c0-23 19-42 42-42h750c23 0 42 19 42 42v208c0 23-19 42-42 42z m-406-154c8-8 19-13 30-13 0 0 0 0 0 0s1 0 1 0 0 0 0 0c12 0 23 5 31 14l156 159c16 17 15 43-1 59-16 16-43 16-59 0l-85-88v689c0 23-19 42-42 42-23 0-42-19-42-42v-688l-81 86c-16 17-42 17-59 2-17-16-17-43-2-59l153-161z" horiz-adv-x="1000" />

<glyph glyph-name="end" unicode="&#xe881;" d="M958 58c23 0 42 19 42 42v500c0 23-19 42-42 42-23 0-41-19-41-42v-208h-1l-191 223c-15 17-41 19-59 4-17-15-19-41-4-58l144-169h-764c-23 0-42-19-42-42 0-23 19-42 42-42h764l-144-172c-15-18-13-44 5-59 17-15 44-12 58 5l190 226h2v-208c0-23 18-42 41-42z" horiz-adv-x="1000" />

<glyph glyph-name="fit-to-2" unicode="&#xe882;" d="M143 767h65c23 0 42 18 42 41s-19 42-42 42h-166c-23 0-42-19-42-42v-166c0-23 19-42 42-42s41 19 41 42v67l220-220c8-8 19-12 30-12s21 4 29 12c16 16 16 43 0 59l-219 219z m815-667c-23 0-41-19-41-42v-65l-220 220c-16 16-43 16-59 0-16-16-16-43 0-59l221-221h-67c-23 0-42-18-42-41 0-23 19-42 42-42h166c23 0 42 19 42 42v166c0 23-19 42-42 42z" horiz-adv-x="1000" />

<glyph glyph-name="fit-to" unicode="&#xe883;" d="M330 240l-247-247v107c0 23-18 42-41 42s-42-19-42-42v-208c0-23 19-42 42-42h208c23 0 42 19 42 42s-19 41-42 41h-109l248 248c16 16 16 43 0 59-16 16-42 16-59 0z m628 610h-166c-23 0-42-19-42-42s19-41 42-41h65l-206-206c-17-17-17-43 0-59 8-9 19-13 29-13s22 5 30 13l207 207v-67c0-23 18-42 41-42s42 19 42 42v166c0 23-19 42-42 42z" horiz-adv-x="1000" />

<glyph glyph-name="full-screen-2" unicode="&#xe884;" d="M303 213l-220-220v65c0 23-18 42-41 42s-42-19-42-42v-166c0-23 19-42 42-42h166c23 0 42 19 42 42s-19 41-42 41h-67l221 221c16 16 16 43 0 59s-43 16-59 0z m-160 554h65c23 0 42 18 42 41s-19 42-42 42h-166c-23 0-42-19-42-42v-166c0-23 19-42 42-42s41 19 41 42v67l220-220c8-8 19-12 30-12s21 4 29 12c16 16 16 43 0 59l-219 219z m815 83h-166c-23 0-42-19-42-42s19-41 42-41h65l-219-219c-16-16-16-43 0-59 8-8 19-12 30-12s21 4 29 12l220 220v-67c0-23 18-42 41-42s42 19 42 42v166c0 23-19 42-42 42z m0-750c-23 0-41-19-41-42v-65l-220 220c-16 16-43 16-59 0-16-16-16-43 0-59l221-221h-67c-23 0-42-18-42-41s19-42 42-42h166c23 0 42 19 42 42v166c0 23-19 42-42 42z" horiz-adv-x="1000" />

<glyph glyph-name="full-screen" unicode="&#xe885;" d="M588 49l-52-53v194c0 23-19 41-42 41s-41-18-41-41v-193l-45 52c-15 17-40 18-56 3-17-16-17-42-2-59l120-130c4-4 9-7 14-10 5-2 11-3 16-3 0 0 1 0 1 0l0 0h0c5 0 11 1 16 3 1 1 3 2 4 3 3 2 6 3 8 5 0 0 0 1 1 1 0 1 1 1 1 1l120 130c15 17 13 43-4 59-17 15-44 14-59-3z m-180 602l45 52v-183c0-23 19-41 41-41s42 18 42 41v184l52-53c8-9 20-14 31-14 10 0 21 4 29 11 17 16 18 42 3 59l-120 130c0 0-1 0-1 1-3 3-7 5-11 7 0 0-1 1-2 1-5 3-11 4-17 4-12 0-22-5-30-13l-119-130c-16-17-16-43 1-59 16-15 41-14 56 3z m-260-384h193c23 0 41 19 41 41 0 23-18 42-41 42h-193l51 50c17 15 18 42 3 59-16 17-42 19-59 3l-130-118c-8-8-13-19-13-30s5-23 13-31l130-118c8-7 18-11 28-11 11 0 23 4 31 13 15 17 14 40-3 56l-51 44z m852 47c0 13-6 24-15 31l-129 118c-17 15-43 14-58-3-16-16-15-45 2-60l52-50h-182c-22 0-41-19-41-42 0-22 19-41 41-41h182l-52-44c-17-16-18-40-2-57 8-9 19-13 30-13 10 0 20 4 28 11l129 119c9 7 15 18 15 31z" horiz-adv-x="1000" />

<glyph glyph-name="go-bottom" unicode="&#xe886;" d="M750-67h-208v2l226 190c18 14 20 41 5 58-15 18-41 20-59 6l-172-145v764c0 23-19 42-42 42-23 0-42-19-42-42v-764l-169 144c-17 15-43 13-58-4-15-18-13-44 4-59l223-191v-1h-208c-23 0-42-18-42-41 0-23 19-42 42-42h500c23 0 42 19 42 42 0 23-19 41-42 41z" horiz-adv-x="1000" />

<glyph glyph-name="go-top" unicode="&#xe887;" d="M792 808c0 23-19 42-42 42h-500c-23 0-42-19-42-42 0-23 19-41 42-41h208v-1l-223-191c-17-15-19-41-4-59 15-17 41-19 58-4l169 144v-764c0-23 19-42 42-42 23 0 42 19 42 42v764l172-144c18-15 44-13 59 5 15 17 13 44-5 58l-226 190v2h208c23 0 42 18 42 41z" horiz-adv-x="1000" />

<glyph glyph-name="left---right-3" unicode="&#xe888;" d="M979 386l-292 166c-13 7-28 7-41 0s-21-21-21-36v-124h-250v124c0 15-8 28-21 36s-28 7-41 0l-292-166c-13-7-21-21-21-36 0-15 8-29 21-36l292-166c6-4 13-5 20-5 8 0 15 1 21 5 13 8 21 21 21 36v124h250v-124c0-15 8-28 21-36 6-3 13-5 21-5 7 0 14 1 20 5l292 166c13 7 21 21 21 36 0 15-8 29-21 36z m-687-130l-166 94 166 94v-188z m416 0v188l166-94-166-94z" horiz-adv-x="1000" />

<glyph glyph-name="left---right" unicode="&#xe889;" d="M1000 350c0 12-5 23-13 30l-163 204c-15 18-41 21-59 7-18-14-21-41-6-59l112-140h-743l112 140c15 18 12 45-6 59-18 14-44 11-59-7l-166-208c-13-15-13-37 0-52l166-208c9-11 21-16 33-16 9 0 18 3 26 9 18 15 21 41 6 59l-112 140h743l-112-140c-15-18-12-44 6-59 8-6 17-9 26-9 12 0 25 5 33 16l163 204c8 7 13 18 13 30z" horiz-adv-x="1000" />

<glyph glyph-name="left" unicode="&#xe88a;" d="M959 392h-831l112 140c15 18 12 45-6 59-18 14-44 11-59-7l-166-208c-13-15-13-37 0-52l166-208c9-11 21-16 33-16 9 0 18 3 26 9 18 15 21 41 7 59l-113 140h831c23 0 41 19 41 42s-18 42-41 42z" horiz-adv-x="1000" />

<glyph glyph-name="left-2" unicode="&#xe88b;" d="M958-4h-591c-10 0-21 4-28 11l-326 313c-8 8-13 19-13 30s5 22 13 30l326 313c7 7 18 11 28 11h591c23 0 42-18 42-41v-625c0-23-19-42-42-42z m-574 83h533v542h-533l-282-271 282-271z" horiz-adv-x="1000" />

<glyph glyph-name="left-3" unicode="&#xe88c;" d="M958 394h-583v113c0 15-8 29-21 36-12 8-28 8-41 0l-292-164c-13-8-21-22-21-37 0-16 9-30 23-37l291-149c6-3 13-5 19-5 8 0 15 2 22 6 12 8 20 21 20 36v117h583c23 0 42 19 42 42s-19 42-42 42z m-666-133l-162 83 162 92v-175z" horiz-adv-x="1000" />

<glyph glyph-name="left-to-right" unicode="&#xe88d;" d="M990 374l-202 241c-15 18-42 20-59 5s-20-41-5-58l143-170h-783v208c0 23-19 42-42 42s-41-19-41-42v-500c0-23 18-42 41-42s42 19 42 42v208h785l-145-169c-15-18-13-44 4-59 8-7 18-10 28-10 11 0 23 5 31 15l203 236c13 15 13 38 0 53z" horiz-adv-x="1000" />

<glyph glyph-name="loop" unicode="&#xe88e;" d="M795 558h-73l-68 72c-15 17-42 18-59 2-16-16-17-42-1-59l14-15h-403c-113 0-205-93-205-208 0-115 92-208 205-208h116l67-72c8-9 19-13 31-13 10 0 20 3 28 11 17 16 18 42 2 59l-14 15h360c113 0 205 93 205 208 0 115-92 208-205 208z m0-333h-360l14 15c16 17 15 43-2 59-17 16-43 15-59-2l-67-72h-116c-67 0-122 56-122 125 0 69 55 125 122 125h403l-14-15c-16-17-15-43 1-59 8-7 19-11 29-11 11 0 22 4 30 13l68 72h73c67 0 122-56 122-125 0-69-55-125-122-125z" horiz-adv-x="1000" />

<glyph glyph-name="navigate-end" unicode="&#xe88f;" d="M21 543l459-250c6-4 13-5 20-5s13 1 20 5l458 250c20 11 28 36 17 56-12 20-37 28-57 17l-438-239-439 239c-20 11-45 3-56-17-11-20-4-45 16-56z m938-380h-917c-23 0-42-19-42-42s19-42 42-42h917c23 0 41 19 41 42s-18 42-41 42z" horiz-adv-x="1000" />

<glyph glyph-name="navigat-start" unicode="&#xe890;" d="M978 199l-458 250c-13 7-28 7-40 0l-459-250c-20-11-27-36-16-56 11-21 36-28 56-17l439 239 438-239c6-3 13-5 20-5 15 0 29 8 37 22 11 20 3 45-17 56z m-936 297h917c23 0 41 19 41 42s-18 41-41 41h-917c-23 0-42-18-42-41s19-42 42-42z" horiz-adv-x="1000" />

<glyph glyph-name="reload" unicode="&#xe891;" d="M981 382l-105 69c-48 178-219 302-413 282-103-10-196-60-262-141-56-69-86-153-86-241l-53 30c-20 11-45 4-57-16-11-20-4-45 16-57l108-60c45-165 196-283 373-283 13 0 27 1 40 2 103 10 197 60 262 141 55 67 84 149 86 234l46-30c19-13 45-7 57 12 13 19 7 45-12 58z m-242-222c-51-63-124-102-206-110-149-16-281 77-322 212l86 67c18 14 22 40 8 58-14 18-41 22-59 8l-47-37c1 66 24 129 67 182 51 63 124 102 206 110 10 1 21 2 31 2 136 0 251-88 290-212l-88-59c-20-13-25-39-12-58 8-12 21-19 35-19 8 0 16 3 23 7l56 38c0-69-24-135-68-189z" horiz-adv-x="1000" />

<glyph glyph-name="reload-2" unicode="&#xe892;" d="M995 365c-12 20-37 27-57 16l-53-30c0 88-30 172-86 241-66 81-159 131-262 141-194 20-365-104-413-282l-105-69c-20-13-25-39-12-58 13-19 38-25 58-12l45 30c2-85 31-167 86-234 66-81 159-131 262-141 13-2 27-2 40-2l0 0c177 0 328 118 373 283l108 60c20 12 27 37 16 57z m-497-317l0 0c-11 0-21 1-31 2-82 8-155 47-206 110-44 54-68 120-68 189l56-37c7-5 15-7 23-7 14 0 27 6 35 18 13 19 8 45-12 58l-88 59c39 124 154 212 290 212 10 0 21-1 31-2 82-8 155-47 206-110 43-53 66-116 67-182l-47 37c-18 14-45 10-59-8s-10-44 8-58l86-67c-38-125-155-214-291-214z" horiz-adv-x="1000" />

<glyph glyph-name="repeat" unicode="&#xe893;" d="M83 328v62c0 96 99 147 197 147h593l-108-142c-14-18-10-44 8-58 7-6 16-9 25-9 13 0 25 6 33 17l160 208c11 15 11 36 0 51l-160 208c-14 18-40 22-58 8s-22-40-8-59l108-141h-593c-139 0-280-79-280-230v-62c0-23 19-41 42-41s41 18 41 41z m875 125c-23 0-41-18-41-41v-62c0-87-37-188-139-188h-634l109 143c14 18 11 44-7 58-19 14-45 11-59-8l-159-208c-12-15-12-36 0-51l159-208c8-11 21-17 33-17 9 0 18 3 26 9 18 14 21 40 7 58l-107 140h632c133 0 222 110 222 272v62c0 23-19 41-42 41z" horiz-adv-x="1000" />

<glyph glyph-name="repeat-2" unicode="&#xe894;" d="M942 468c-6 22-28 36-51 30-22-6-35-29-29-51 34-129-3-267-97-361-128-127-325-143-471-48l83 23c23 7 36 30 29 52-6 22-29 35-51 29l-161-45c0 0-1-1-2-1-2-1-3-1-4-2-4-2-7-4-10-6 0-1-1-1-2-2 0 0 0-1-1-1-3-3-6-7-8-12 0-1 0-2 0-3-1-3-2-5-3-8l-20-165c-3-23 14-44 36-47 2 0 4 0 6 0 20 0 38 15 41 37l11 89c78-55 170-82 262-82 117 0 234 44 324 133 115 115 160 284 118 441z m-707 146c128 127 325 143 471 48l-83-23c-23-6-36-29-29-52 5-18 21-30 40-30 3 0 7 0 11 1l161 45c0 1 1 1 2 1 2 1 3 2 4 2 4 2 7 4 10 6 0 1 1 1 2 2 0 0 0 1 1 1 3 4 6 8 8 12 0 1 0 2 1 3 1 3 2 6 2 8l20 165c3 23-13 44-36 47-23 2-44-14-47-37l-11-89c-178 124-426 108-586-51-115-115-160-284-118-441 5-19 22-31 40-31 4 0 7 1 11 1 22 6 35 29 29 52-34 128 3 266 97 360z" horiz-adv-x="1000" />

<glyph glyph-name="repeat-3" unicode="&#xe895;" d="M824 673c-160 159-408 175-586 51l-11 89c-3 23-24 39-46 37-23-3-40-24-37-47l20-165c1-2 2-5 3-8 0-1 0-2 1-3 2-4 4-8 8-12 0 0 0-1 0-1 1-1 2-1 3-2 2-2 5-4 9-6 1 0 3-1 4-2 1 0 2 0 3-1l160-45c4-1 8-1 12-1 18 0 34 12 40 30 6 23-7 46-29 52l-83 23c145 95 342 79 470-48 94-94 131-232 97-361-6-22 7-45 29-51 4-1 8-1 11-1 19 0 36 12 41 31 41 157-4 326-119 441z m9-603c0 1 0 2 0 3-2 4-5 8-9 12 0 0 0 1 0 1-1 1-2 1-3 2-2 2-5 4-9 6-1 0-2 1-4 2-1 0-2 0-3 1l-160 45c-22 6-45-7-52-29-6-23 7-46 29-52l84-23c-146-95-343-79-471 48-94 94-131 232-97 361 6 22-7 45-29 51-23 6-45-8-51-30-42-157 3-326 118-441 90-89 207-133 324-133 92 0 184 27 262 82l11-89c3-22 21-37 41-37 2 0 4 0 5 0 23 3 40 24 37 47l-20 165c-1 2-2 5-3 8z" horiz-adv-x="1000" />

<glyph glyph-name="repeat-4" unicode="&#xe896;" d="M42 308c23 0 41 19 41 42 0 83 74 153 160 153h597l-67-76c-15-17-14-44 3-59 8-7 18-10 28-10 11 0 23 4 31 14l129 145c14 16 14 40 0 56l-129 145c-15 18-41 19-59 4-17-15-19-42-3-59l67-76h-597c-132 0-243-109-243-237 0-23 19-42 42-42z m916 84c-23 0-41-12-41-34 0-84-73-146-160-146h-597l67 69c16 17 14 40-3 55-8 7-18 8-28 8-11 0-23-5-31-15l-129-146c-14-16-14-40 0-55l129-146c15-18 41-19 59-4 17 15 19 49 3 66l-67 84h597c132 0 243 101 243 230 0 23-19 34-42 34z" horiz-adv-x="1000" />

<glyph glyph-name="right" unicode="&#xe897;" d="M1000 350c0 12-5 23-13 30l-164 204c-14 18-40 21-58 7-18-14-21-41-7-59l113-140h-829c-23 0-42-19-42-42s19-42 42-42h829l-113-140c-14-18-11-44 7-59 8-6 17-9 26-9 12 0 24 5 32 16l164 204c8 7 13 18 13 30z" horiz-adv-x="1000" />

<glyph glyph-name="right-2" unicode="&#xe898;" d="M646-4h-604c-23 0-42 19-42 42v625c0 23 19 41 42 41h604c11 0 22-4 30-12l312-312c16-17 16-43 0-59l-312-313c-8-8-19-12-30-12z m-563 83h546l270 271-270 271h-546v-542z" horiz-adv-x="1000" />

<glyph glyph-name="right-3" unicode="&#xe899;" d="M977 390l-291 150c-13 6-29 6-41-2-12-7-20-21-20-35v-108h-583c-23 0-42-19-42-42s19-42 42-42h583v-114c0-14 8-28 20-35 7-4 14-6 22-6 6 0 13 1 19 5l292 155c14 7 22 21 22 37 0 15-9 29-23 37z m-269-123v167l160-82-160-85z" horiz-adv-x="1000" />

<glyph glyph-name="right-to-left" unicode="&#xe89a;" d="M959 642c-23 0-42-19-42-42v-208h-784l142 170c15 17 13 44-5 58s-44 13-58-5l-197-234c-6-5-10-10-12-17-6-14-4-31 7-43l202-236c8-10 20-15 32-15 9 0 19 3 27 10 17 15 19 41 4 59l-145 169h787v-208c0-23 19-42 42-42s41 19 41 42v500c0 23-18 42-41 42z" horiz-adv-x="1000" />

<glyph glyph-name="shuffle" unicode="&#xe89b;" d="M985 90l-122 121c-17 16-43 16-59 0-17-17-16-43 0-59l51-51c-108 13-227 127-344 244 117 122 236 240 344 254l-51-51c-16-16-16-42 0-59 8-8 19-12 29-12 11 0 22 4 30 12l122 121c9 8 15 19 15 32s-6 23-15 31l-122 121c-17 17-43 16-59 0-16-16-16-43 0-59l53-53c-140-10-274-142-405-278-132 133-268 259-410 259-23 0-42-19-42-42s19-42 42-42c110 0 232-114 353-235-121-125-244-244-353-244-23 0-42-19-42-42 0-23 19-41 42-41 142 0 279 131 411 268 130-131 265-258 404-267l-53-53c-16-16-16-43 0-59 8-8 19-12 29-12 11 0 22 4 30 12l122 121c9 8 15 19 15 31 0 13-6 24-15 32z" horiz-adv-x="1000" />

<glyph glyph-name="shuffle-2" unicode="&#xe89c;" d="M986 90l-123 121c-16 16-43 16-59 0-16-17-16-43 0-59l51-51c-115 14-243 143-367 268-143 144-291 294-446 294-23 0-42-19-42-42s19-42 42-42c120 0 256-136 387-269 137-139 280-282 429-292l-54-53c-16-16-16-43 0-59 8-8 19-12 30-12 10 0 21 4 29 12l123 121c9 8 15 19 15 31s-7 24-15 32z m-452 296c11 0 21 4 29 13 97 97 198 187 291 199l-50-50c-16-16-16-42 0-59 8-8 19-12 30-12 10 0 21 4 29 12l123 121c9 8 14 19 14 32s-6 23-14 31l-123 121c-16 17-43 16-59 0-16-16-16-43 0-59l54-53c-116-8-226-95-354-225-16-16-16-42 1-59 8-8 18-12 29-12z m-209-92c-87-86-189-173-284-173-23 0-42-19-42-42s19-41 42-41c125 0 243 99 342 197 17 16 17 42 1 59-16 16-43 16-59 0z" horiz-adv-x="1000" />

</font>
</defs>
</svg>
